<?xml version="1.0" encoding="utf-8"?>
<!-- Generator: Adobe Illustrator 26.0.1, SVG Export Plug-In . SVG Version: 6.00 Build 0)  -->
<svg version="1.1" id="Layer_3" xmlns="http://www.w3.org/2000/svg" xmlns:xlink="http://www.w3.org/1999/xlink" x="0px" y="0px"
	 viewBox="0 0 512 512" style="enable-background:new 0 0 512 512;" xml:space="preserve">
<style type="text/css">
	.st0{fill:#F4A56E;}
	.st1{fill:#087182;}
	.st2{fill:url(#SVGID_1_);}
	.st3{fill:url(#SVGID_00000147194295158266553390000010157247434886874001_);}
	.st4{fill:#F69038;}
	.st5{fill:#90E3F5;}
	.st6{opacity:0.3;fill:#FCDFC2;enable-background:new    ;}
	.st7{opacity:0.2;fill:#232626;enable-background:new    ;}
	.st8{fill:#FFBE92;}
</style>
<g>
	<path class="st0" d="M383.5,373.4c0,0-7.5,74.6,40.5,90.6v48h80V296l-56-112L383.5,373.4z"/>
	<path class="st0" d="M87.5,512v-48c48-16,40.7-89.1,40.7-89.1L64,184L7.5,296v216H87.5z"/>
	<path class="st1" d="M424,104l24-8v278.9l-34.7,0.6c0,0-66.2-14.8-121.6,29.4c-2.4,1.9-3.7,4.8-3.7,7.8V424h-48v-10.2
		c0-3.7-2-7.1-5.2-8.8c-16.8-9.1-70.1-35.9-136.6-29.2L64,374.9V96l24,8l176,68.9L424,104z"/>
	<radialGradient id="SVGID_1_" cx="209.4706" cy="181.2353" r="621.7217" gradientUnits="userSpaceOnUse">
		<stop  offset="0" style="stop-color:#F7941D"/>
		<stop  offset="0.5028" style="stop-color:#F7921E"/>
		<stop  offset="0.6839" style="stop-color:#F68B1F"/>
		<stop  offset="0.8131" style="stop-color:#F57F22"/>
		<stop  offset="0.9167" style="stop-color:#F36E25"/>
		<stop  offset="1" style="stop-color:#F15A29"/>
	</radialGradient>
	<path class="st2" d="M88,229.7V80c20.4-0.7,64.2,0.4,96,8c28.1,6.7,55,17.5,80,32v264c-25-14.5-51.9-25.3-80-32
		c-31.8-7.6-75.6-8.7-96-8v-54.9"/>
	
		<radialGradient id="SVGID_00000173160716376549218690000002949637667749879199_" cx="11.8235" cy="258.8824" r="490.2728" gradientUnits="userSpaceOnUse">
		<stop  offset="0" style="stop-color:#F7941D"/>
		<stop  offset="0.5028" style="stop-color:#F7921E"/>
		<stop  offset="0.6839" style="stop-color:#F68B1F"/>
		<stop  offset="0.8131" style="stop-color:#F57F22"/>
		<stop  offset="0.9167" style="stop-color:#F36E25"/>
		<stop  offset="1" style="stop-color:#F15A29"/>
	</radialGradient>
	<path style="fill:url(#SVGID_00000173160716376549218690000002949637667749879199_);" d="M424,289.6V344c-21.2-3.2-42.8-3.2-64,0
		c-34.8,5.4-67.7,19.1-96,40V120c28.3-20.9,61.2-34.6,96-40c21.2-3.2,42.8-3.2,64,0v150.1"/>
	<circle class="st4" cx="180" cy="436" r="20"/>
	<circle class="st5" cx="52" cy="44" r="20"/>
	<path class="st4" d="M278.1,33.9L304,48l-25.9,14.1L264,88l-14.1-25.9L224,48l25.9-14.1L264,8L278.1,33.9z"/>
	<path class="st5" d="M358.1,449.9L384,464l-25.9,14.1L344,504l-14.1-25.9L304,464l25.9-14.1L344,424L358.1,449.9z"/>
	<path class="st6" d="M120.1,109.6c20.4-0.7,64.2,0.4,96,8c16.4,3.9,32.4,9.2,47.9,15.9V120c-25-14.5-51.9-25.3-80-32
		c-31.8-7.6-75.6-8.7-96-8v264c7.9-0.3,19.3-0.3,32.1,0.3V109.6z"/>
	<path class="st7" d="M396.4,208c0,0-25.8,45.1-1.8,69.1L456,339l10.7-43L396.4,208z"/>
	<path class="st7" d="M116,208c0,0,25.8,45.1,1.8,69.1L56.4,339l-10.7-43L116,208z"/>
	<path class="st8" d="M504,512V296l-106.8-88c-9.2,21.2-6.1,45.7,8,64l42.8,40v24c0,0-48,0-32,80l8,48v48C424,512,506,510,504,512z"
		/>
	<path class="st8" d="M7.5,512V296l106.8-88c9.2,21.2,6.1,45.7-8,64l-42.8,40v24c0,0,48,0,32,80l-8,48v48H7.5z"/>
	<g>
		<path d="M120,32h16v16h-16V32z"/>
		<path d="M376,168h16v16h-16V168z"/>
		<path d="M424,32h16v16h-16V32z"/>
		<path d="M0,189.7h16v16H0V189.7z"/>
		<path d="M232,464h16v16h-16V464z"/>
		<path d="M180,408c-15.4,0-28,12.6-28,28s12.6,28,28,28s28-12.6,28-28S195.4,408,180,408z M180,448c-6.6,0-12-5.4-12-12
			s5.4-12,12-12s12,5.4,12,12S186.6,448,180,448z"/>
		<path d="M52,72c15.4,0,28-12.6,28-28S67.4,16,52,16S24,28.6,24,44S36.6,72,52,72z M52,32c6.6,0,12,5.4,12,12s-5.4,12-12,12
			s-12-5.4-12-12S45.4,32,52,32z"/>
		<path d="M220.2,55L244,68l13,23.8c1.4,2.6,4.1,4.2,7,4.2s5.6-1.6,7-4.2L284,68l23.8-13c2.6-1.4,4.2-4.1,4.2-7s-1.6-5.6-4.2-7
			L284,28L271,4.2c-1.4-2.6-4.1-4.2-7-4.2s-5.6,1.6-7,4.2L244,28l-23.8,13c-2.6,1.4-4.2,4.1-4.2,7S217.6,53.6,220.2,55z M253.7,40.9
			c1.3-0.7,2.4-1.8,3.2-3.2l7.1-13l7.1,13c0.7,1.3,1.8,2.4,3.2,3.2l13,7.1l-13,7.1c-1.3,0.7-2.4,1.8-3.2,3.2l-7.1,13l-7.1-13
			c-0.7-1.3-1.8-2.4-3.2-3.2l-13-7.1L253.7,40.9z"/>
		<path d="M387.8,457L364,444l-13-23.8c-1.4-2.6-4.1-4.2-7-4.2s-5.6,1.6-7,4.2L324,444l-23.8,13c-2.6,1.4-4.2,4.1-4.2,7
			s1.6,5.6,4.2,7l23.8,13l13,23.8c1.4,2.6,4.1,4.2,7,4.2s5.6-1.6,7-4.2l13-23.8l23.8-13c2.6-1.4,4.2-4.1,4.2-7
			S390.4,458.4,387.8,457z M354.3,471.1c-1.3,0.7-2.4,1.8-3.2,3.2l-7.1,13l-7.1-13c-0.7-1.3-1.8-2.4-3.2-3.2l-13-7.1l13-7.1
			c1.3-0.7,2.4-1.8,3.2-3.2l7.1-13l7.1,13c0.7,1.3,1.8,2.4,3.2,3.2l13,7.1L354.3,471.1z"/>
		<path d="M511.1,292.4L456,182.1V96c0-2.6-1.2-5-3.3-6.5s-4.8-1.9-7.2-1.1L432,92.9V80c0-4-2.9-7.3-6.8-7.9
			c-22.1-3.3-44.5-3.3-66.4,0c-33.8,5.1-66.6,18.4-95.3,38.4c-24.4-13.6-50.5-23.8-77.7-30.3c-33.7-8.1-78.9-8.9-98.1-8.2
			c-4.3,0.2-7.7,3.7-7.7,8v12.9l-13.5-4.5c-2.4-0.8-5.1-0.4-7.2,1.1C57.2,91,56,93.4,56,96v86.1L0.4,292.4c-0.6,1.1-0.9,2.3-0.9,3.6
			v216h16V299.8l94.8-78.2c2.2,10.4,2.7,27.6-10,45L58,306.2c-1.6,1.5-2.5,3.6-2.5,5.8v24c0,4.4,3.6,8,8,8c0.1,0,10.5,0.3,18.2,9.7
			c9.5,11.6,11.6,32.6,6,60.7l15.7,3.1c2.5-12.7,3.7-24.2,3.4-34.4c4.7-0.3,9.3-0.4,13.9-0.4c0.3,17.5-2.4,62.6-35.6,73.7
			c-3.3,1.1-5.5,4.1-5.5,7.6v48h16v-42.5c19.5-8.7,32.6-27.4,38.2-54.4c2.6-12.4,3-23.9,2.9-31.6c41.7,3.4,75.6,18.4,94.3,28.6
			c0.7,0.4,1.1,1,1.1,1.8V424c0,4.4,3.6,8,8,8h48c4.4,0,8-3.6,8-8v-11.3c0-0.6,0.3-1.2,0.7-1.6c26.5-21.1,55.9-27.9,78.3-29.5
			c-0.4,20.7,2.8,70.9,40.9,87.9V512h16v-48c0-3.4-2.2-6.5-5.5-7.6c-33.3-11.1-35.8-57.4-35.4-75.2c5.6,0.2,10.2,0.6,13.7,1
			c-0.4,10.4,0.7,22.2,3.3,35.3l15.7-3.1c-5.6-27.9-3.6-48.8,5.8-60.5c7.7-9.6,18-9.9,18.4-10c4.4,0,8-3.6,8-8v-24
			c0-2.2-0.9-4.3-2.5-5.8l-42.2-39.5c-12.8-17.4-12.2-34.6-10-45l94.8,78.2V512h16V296C512,294.7,511.7,293.5,511.1,292.4
			L511.1,292.4z M480,265.8L456,246v-28.2L480,265.8z M440,107.1v125.8l-8-6.6V109.8L440,107.1z M80,109.8v116.1l-8,6.6V107.1
			L80,109.8z M56,245.7l-24.2,20l24.2-48V245.7z M111.7,277.8c0.3-0.3,0.7-0.7,0.9-1c26.7-35.5,9.5-70.9,8.8-72.4
			c-1.1-2.2-3.1-3.7-5.5-4.2s-4.9,0.1-6.7,1.7L96,212.7V87.8c21.1-0.2,58,1.2,86.1,8c25.8,6.2,50.7,15.9,73.9,28.9v245.8
			c-22.2-11.6-45.7-20.4-70.1-26.2c-29.5-7.1-67.9-8.6-89.9-8.4v-43.3L111.7,277.8z M71.5,315.5l8.5-7.9v24.8
			c-3.1-1.5-6-2.5-8.5-3.2V315.5z M286.8,398.6c-4.3,3.4-6.8,8.6-6.8,14.1v3.3h-32v-2.2c0-6.6-3.6-12.7-9.4-15.8
			c-24.7-13.4-74-34.6-133.7-30.7c-1.2-5.7-3-10.8-5.4-15.4c21.5,0,56,1.6,82.6,8c27.3,6.5,53.5,17,77.9,31.1c1.2,0.7,2.6,1.1,4,1.1
			s2.8-0.4,4-1.1c0.3-0.1,0.5-0.3,0.7-0.5c27.6-20.2,59.5-33.5,92.5-38.5c17-2.6,34.2-3,51.4-1.3c-2.6,4.6-4.5,9.9-5.8,15.7
			C386.6,363.7,333.4,361.4,286.8,398.6L286.8,398.6z M440,329.2c-2.4,0.6-5.1,1.5-8,2.9V308l8,7.5V329.2z M395.6,200.2
			c-2.4,0.5-4.4,2.1-5.5,4.2c-0.7,1.5-17.9,36.8,8.8,72.4c0.3,0.4,0.6,0.7,0.9,1L416,293v41.9c-19.1-2.1-38.3-1.7-57.2,1.2
			c-30.5,4.6-60.2,15.9-86.8,32.8V124.1c26.8-18.9,57.6-31.4,89.2-36.2c18.1-2.7,36.5-3,54.8-0.9v126.1l-13.7-11.3
			C400.4,200.3,397.9,199.7,395.6,200.2L395.6,200.2z"/>
		<path d="M228,174.9l7.9-13.9c-57.7-33-114.7-25.3-117.1-25l2.3,15.8C121.7,151.8,175,144.7,228,174.9L228,174.9z"/>
		<path d="M228,214.9l7.9-13.9c-57.7-33-114.7-25.3-117.1-25l2.3,15.8C121.7,191.8,175,184.7,228,214.9L228,214.9z"/>
		<path d="M284,321.1l7.9,13.9c52.8-30.2,106.4-23.1,106.9-23l2.3-15.8C398.7,295.7,341.7,288.1,284,321.1L284,321.1z"/>
		<path d="M284,153.9l7.9,13.9c52.8-30.2,106.4-23.1,106.9-23l2.3-15.8C398.7,128.6,341.7,121,284,153.9L284,153.9z"/>
	</g>
</g>
</svg>
