<?xml version="1.0" encoding="utf-8"?>
<!-- Generator: Adobe Illustrator 26.0.1, SVG Export Plug-In . SVG Version: 6.00 Build 0)  -->
<svg version="1.1" id="Layer_1" xmlns="http://www.w3.org/2000/svg" xmlns:xlink="http://www.w3.org/1999/xlink" x="0px" y="0px"
	 viewBox="0 0 512 512" style="enable-background:new 0 0 512 512;" xml:space="preserve">
<style type="text/css">
	.st0{fill:#3A9BFB;}
	.st1{fill:#F89B00;}
	.st2{fill:url(#SVGID_1_);}
	.st3{fill:url(#SVGID_00000078026478807696312960000002263781505740371112_);}
	.st4{fill:url(#SVGID_00000020396940748184478780000012556146177739999165_);}
	.st5{fill:#2B73BA;}
	.st6{fill:#EE8700;}
	.st7{fill:url(#SVGID_00000072252326744932729150000010795351480677508496_);}
	.st8{fill:url(#SVGID_00000162333825649416743580000001730398524504885946_);}
	.st9{fill-rule:evenodd;clip-rule:evenodd;fill:url(#SVGID_00000075157242084529500430000006799227573045418160_);}
	.st10{fill-rule:evenodd;clip-rule:evenodd;}
</style>
<path class="st0" d="M112.3,239.8h65v171.3h-65V239.8z"/>
<path class="st1" d="M213.5,265.8h65v145.2h-65L213.5,265.8z"/>
<path class="st0" d="M314.8,184.5h65v226.6h-65V184.5z"/>
<radialGradient id="SVGID_1_" cx="558.8823" cy="223.2353" r="349.155" gradientUnits="userSpaceOnUse">
	<stop  offset="0" style="stop-color:#F7941D"/>
	<stop  offset="0.5028" style="stop-color:#F7921E"/>
	<stop  offset="0.6839" style="stop-color:#F68B1F"/>
	<stop  offset="0.8131" style="stop-color:#F57F22"/>
	<stop  offset="0.9167" style="stop-color:#F36E25"/>
	<stop  offset="1" style="stop-color:#F15A29"/>
</radialGradient>
<path class="st2" d="M416,85.9h65v325.2h-65V85.9z"/>
<radialGradient id="SVGID_00000008110249812042141390000013851509387283761797_" cx="58.0588" cy="280.4118" r="240.635" gradientUnits="userSpaceOnUse">
	<stop  offset="0" style="stop-color:#F7941D"/>
	<stop  offset="0.5028" style="stop-color:#F7921E"/>
	<stop  offset="0.6839" style="stop-color:#F68B1F"/>
	<stop  offset="0.8131" style="stop-color:#F57F22"/>
	<stop  offset="0.9167" style="stop-color:#F36E25"/>
	<stop  offset="1" style="stop-color:#F15A29"/>
</radialGradient>
<path style="fill:url(#SVGID_00000008110249812042141390000013851509387283761797_);" d="M11,322.2h65v88.9H11L11,322.2z"/>
<radialGradient id="SVGID_00000039123240508591381900000004430668570733480619_" cx="-174.8824" cy="397.9412" r="217.0821" gradientUnits="userSpaceOnUse">
	<stop  offset="0" style="stop-color:#F7941D"/>
	<stop  offset="0.5028" style="stop-color:#F7921E"/>
	<stop  offset="0.6839" style="stop-color:#F68B1F"/>
	<stop  offset="0.8131" style="stop-color:#F57F22"/>
	<stop  offset="0.9167" style="stop-color:#F36E25"/>
	<stop  offset="1" style="stop-color:#F15A29"/>
</radialGradient>
<path style="fill:url(#SVGID_00000039123240508591381900000004430668570733480619_);" d="M11,322.2h16.7v88.9H11L11,322.2z"/>
<path class="st5" d="M112.3,239.8H129v171.3h-16.7V239.8z"/>
<path class="st6" d="M213.5,265.8h16.7v145.2h-16.7V265.8z"/>
<path class="st5" d="M314.8,184.5h16.7v226.6h-16.7V184.5z"/>
<radialGradient id="SVGID_00000049939784529862970050000005004376406580854437_" cx="187.2353" cy="214.7647" r="160.0085" gradientUnits="userSpaceOnUse">
	<stop  offset="0" style="stop-color:#F7941D"/>
	<stop  offset="0.5028" style="stop-color:#F7921E"/>
	<stop  offset="0.6839" style="stop-color:#F68B1F"/>
	<stop  offset="0.8131" style="stop-color:#F57F22"/>
	<stop  offset="0.9167" style="stop-color:#F36E25"/>
	<stop  offset="1" style="stop-color:#F15A29"/>
</radialGradient>
<path style="fill:url(#SVGID_00000049939784529862970050000005004376406580854437_);" d="M416,85.9h16.7v325.2H416V85.9z"/>
<radialGradient id="SVGID_00000129201008611409004800000011148998206058240698_" cx="416.037" cy="411.074" r="84.965" gradientUnits="userSpaceOnUse">
	<stop  offset="0" style="stop-color:#F7941D"/>
	<stop  offset="0.5028" style="stop-color:#F7921E"/>
	<stop  offset="0.6839" style="stop-color:#F68B1F"/>
	<stop  offset="0.8131" style="stop-color:#F57F22"/>
	<stop  offset="0.9167" style="stop-color:#F36E25"/>
	<stop  offset="1" style="stop-color:#F15A29"/>
</radialGradient>
<circle style="fill:url(#SVGID_00000129201008611409004800000011148998206058240698_);" cx="416" cy="411.1" r="85"/>
<radialGradient id="SVGID_00000024714563620261705960000011993464224389372312_" cx="393.7059" cy="441.3529" r="141.3599" gradientUnits="userSpaceOnUse">
	<stop  offset="0" style="stop-color:#F7941D"/>
	<stop  offset="0.5028" style="stop-color:#F7921E"/>
	<stop  offset="0.6839" style="stop-color:#F68B1F"/>
	<stop  offset="0.8131" style="stop-color:#F57F22"/>
	<stop  offset="0.9167" style="stop-color:#F36E25"/>
	<stop  offset="1" style="stop-color:#F15A29"/>
</radialGradient>
<path style="fill-rule:evenodd;clip-rule:evenodd;fill:url(#SVGID_00000024714563620261705960000011993464224389372312_);" d="
	M426.2,326.7c42.2,5,74.8,40.9,74.8,84.4s-32.7,79.4-74.8,84.4c-42.2-5-74.8-40.9-74.8-84.4S384,331.7,426.2,326.7z"/>
<g>
	<path d="M449,371.7h-25.9c4.5,3.6,7.8,8.8,8.8,16H449v7.8h-16.9c-1.6,16-14.3,26.2-34.3,26.8c12.2,12.7,25.5,28.7,38.7,44.8h-15
		c-12.2-14.7-23.7-28.4-38.4-44v-9.7h8.6c16.9,0,26-7.1,27.1-17.9H383v-7.8h35.3c-2.2-9.1-10.5-13.6-24.1-13.6H383v-10.2h66V371.7z"
		/>
</g>
<path class="st10" d="M416,498c-46.2,0-84.3-36.1-86.8-82.1l-0.2-2.8h-14.3c-1.1,0-2-0.9-2-2V184.5c0-1.1,0.9-2,2-2h65
	c1.1,0,2,0.9,2,2V331l4-1.5c8.1-3,16.6-4.8,25.3-5.3l2.8-0.2V85.9c0-1.1,0.9-2,2-2h65.1c1.1,0,2,0.9,2,2v270.7l1.1,0.5
	c12.2,15.3,18.8,34.5,18.8,54C503,459,464,498,416,498z M416,328.1c-45.7,0-83,37.2-83,83c0,45.7,37.2,83,83,83
	c45.8,0,83-37.2,83-83C499,365.3,461.8,328.1,416,328.1z M316.8,409.1H329l0.2-2.8c1.7-30.6,19.7-58.3,47-72.5l1.6-0.8V186.5h-61
	V409.1z M418,87.9v236.2l2.8,0.2c19.6,1.1,38.5,8.9,53.2,22.1l5,4.5v-263L418,87.9z M213.5,413.1c-1.1,0-2-0.9-2-2V265.8
	c0-1.1,0.9-2,2-2h65c1.1,0,2,0.9,2,2v145.2c0,1.1-0.9,2-2,2H213.5z M215.5,409.1h61V267.8h-61V409.1z M112.3,413.1c-1.1,0-2-0.9-2-2
	V239.8c0-1.1,0.9-2,2-2h65c0.5,0,1,0.2,1.4,0.6c0.4,0.4,0.6,0.9,0.6,1.4v171.3c0,1.1-0.9,2-2,2H112.3z M114.3,409.1h61V241.8h-61
	V409.1z M11,413.1c-1.1,0-2-0.9-2-2v-88.9c0-1.1,0.9-2,2-2h65c1.1,0,2,0.9,2,2v88.9c0,1.1-0.9,2-2,2H11z M13,409.1h61v-84.9H13
	V409.1z M37.8,282.5c-0.5,0-1-0.2-1.4-0.6c-0.4-0.4-0.6-0.9-0.6-1.4s0.2-1,0.6-1.4l112.7-112.7c0.4-0.4,0.9-0.6,1.4-0.6
	c0.3,0,0.7,0.1,1,0.3l96.6,55.8l203-203l-27.4,3.8c-0.1,0-0.2,0-0.3,0c-1,0-1.8-0.7-2-1.7c-0.1-0.5,0.1-1.1,0.4-1.5
	c0.3-0.4,0.8-0.7,1.3-0.8l33.3-4.6c0.1,0,0.2,0,0.3,0c0.5,0,1,0.2,1.4,0.6c0.5,0.4,0.7,1.1,0.6,1.7l-4.2,33.4c-0.1,1-1,1.8-2,1.8
	c-0.1,0-0.1,0-0.2,0c-1.1-0.1-1.9-1.1-1.8-2.2l3.5-27.6L249.8,225.7c-0.4,0.4-0.9,0.6-1.4,0.6c-0.3,0-0.7-0.1-1-0.3l-96.6-55.8
	L39.3,281.9C38.9,282.2,38.4,282.5,37.8,282.5z"/>
</svg>
