<?xml version="1.0" encoding="utf-8"?>
<!-- Generator: Adobe Illustrator 26.0.1, SVG Export Plug-In . SVG Version: 6.00 Build 0)  -->
<svg version="1.1" id="svg7503" xmlns:svg="http://www.w3.org/2000/svg"
	 xmlns="http://www.w3.org/2000/svg" xmlns:xlink="http://www.w3.org/1999/xlink" x="0px" y="0px" viewBox="0 0 682.7 682.7"
	 style="enable-background:new 0 0 682.7 682.7;" xml:space="preserve">
<style type="text/css">
	.st0{clip-path:url(#SVGID_00000067922798405320795490000002573102710447760777_);}
	.st1{fill:url(#path7521_00000080927907530389912850000004355634751806498215_);}
	.st2{fill:url(#path7525_00000158713072088548297510000017837082557675706250_);}
	.st3{fill:#FFFFFF;}
	.st4{fill:#DFDDE0;}
	.st5{fill:#C8C5C9;}
	.st6{fill:#FFDD80;}
	.st7{fill:#E3BC52;}
	.st8{fill:#63C3FF;}
	.st9{fill:#478CD1;}
	.st10{fill:none;stroke:#000000;stroke-width:5;stroke-linecap:round;stroke-linejoin:round;stroke-miterlimit:17.7777;}
</style>
<g id="g7509" transform="matrix(1.3333333,0,0,-1.3333333,0,682.66667)">
	<g id="g7511">
		<g>
			<g>
				<defs>
					<rect id="SVGID_1_" x="-199.1" y="-199.1" width="910.3" height="910.3"/>
				</defs>
				<clipPath id="SVGID_00000046301070856570701520000016303214620265044911_">
					<use xlink:href="#SVGID_1_"  style="overflow:visible;"/>
				</clipPath>
				<g id="g7513" style="clip-path:url(#SVGID_00000046301070856570701520000016303214620265044911_);">
					<g id="g7519" transform="translate(332,465.7129)">
						
							<radialGradient id="path7521_00000137834334087033142530000007785970148828784041_" cx="-328.0624" cy="-2074.6855" r="964.3578" gradientTransform="matrix(1.3333 0 0 1.3333 613.1667 2414.2842)" gradientUnits="userSpaceOnUse">
							<stop  offset="0" style="stop-color:#F7941D"/>
							<stop  offset="1" style="stop-color:#F15A29"/>
						</radialGradient>
						<path id="path7521" style="fill:url(#path7521_00000137834334087033142530000007785970148828784041_);" d="M0,0
							c67.3-30.2,114.4-99.3,114.4-179.7c0-30-6.7-58.4-18.3-83.9C74.3-311.4,23-361.7,23-361.7c-35.2-37.4-76.3-75.7-92.2-90.3
							c-3.8-3.5-9.7-3.5-13.6,0c-28.5,26.5-138.8,130.9-165.3,188.4c-11.7,25.4-18.3,53.9-18.3,83.9c0,108.2,85.2,195.9,190.4,195.9
							c7.8,0,15.5-0.5,23-1.4"/>
					</g>
					<g id="g7523" transform="translate(332,465.7129)">
						
							<radialGradient id="path7525_00000009556628389064887200000000488224314922324909_" cx="-695.9376" cy="-1908.1854" r="892.2001" gradientTransform="matrix(1.3333 0 0 1.3333 613.1667 2414.2842)" gradientUnits="userSpaceOnUse">
							<stop  offset="0" style="stop-color:#F7941D"/>
							<stop  offset="1" style="stop-color:#F15A29"/>
						</radialGradient>
						<path id="path7525" style="fill:url(#path7525_00000009556628389064887200000000488224314922324909_);" d="M0,0l-53,14.8
							c-7.5,0.9-15.2,1.4-23,1.4c-6.8,0-13.5-0.4-20.1-1.1c1-0.1,2.1-0.2,3.1-0.3L-40,0C27.3-30.2,74.4-99.3,74.4-179.7
							c0-30-6.7-58.4-18.3-83.9C34.3-311.4-17-361.7-17-361.7c-27.7-29.4-59-59.4-78.9-78c5.3-5,9.8-9.2,13.1-12.3
							c3.8-3.5,9.7-3.6,13.6,0c15.9,14.6,57,52.9,92.2,90.3c0,0,51.3,50.3,73.1,98.2c11.6,25.5,18.3,53.9,18.3,83.9
							C114.4-99.3,67.3-30.2,0,0"/>
					</g>
					<g id="g7527" transform="translate(391.3311,284.4756)">
						<path id="path7529" class="st3" d="M0,0c0-76.8-60.6-139-135.3-139S-270.7-76.8-270.7,0s60.6,139,135.3,139S0,76.8,0,0"/>
					</g>
					<g id="g7531" transform="translate(332.0581,447.2373)">
						<path id="path7533" class="st4" d="M0,0h-52.1v52.3c0,2.8,2.2,5,5,5H-5c2.8,0,5-2.2,5-5V0z"/>
					</g>
					<g id="g7535" transform="translate(327.0581,504.5)">
						<path id="path7537" class="st5" d="M0,0h-30c2.8,0,5-2.2,5-5v-52.3H5V-5C5-2.2,2.8,0,0,0"/>
					</g>
					<g id="g7539" transform="translate(258.123,145.4473)">
						<path id="path7541" class="st6" d="M0,0v150.1c0,2.8-2.2,5-5,5h-92.7c-2.8,0-5-2.2-5-5V46.3C-102.7,46.3-64.9-1.2,0,0"/>
					</g>
					<g id="g7543" transform="translate(253.123,300.542)">
						<path id="path7545" class="st7" d="M0,0h-30c2.8,0,5-2.2,5-5v-147.1c9.2-2,19.2-3.2,30-3V-5C5-2.2,2.8,0,0,0"/>
					</g>
					<g id="g7547" transform="translate(256.4272,145.4473)">
						<path id="path7549" class="st8" d="M0,0l-1,298.8c0,2.8,2.2,5,5,5h91.2c2.8,0,5-2.2,5-5V46C100.2,46,63.8,0.1,0,0"/>
					</g>
					<g id="g7551" transform="translate(351.5957,449.2373)">
						<path id="path7553" class="st9" d="M0,0h-30c2.8,0,5-2.2,5-5v-246.4c0-4.3-1.7-8.5-4.7-11.6c-9.3-9.5-31.8-29.1-65.4-37.2
							v-3.6c63.8,0.1,100.2,46,100.2,46V-5C5-2.2,2.8,0,0,0"/>
					</g>
					<g id="g7555" transform="translate(332,465.7129)">
						<path id="path7557" class="st10" d="M0,0c67.3-30.2,114.4-99.3,114.4-179.7c0-30-6.6-58.5-18.3-83.9
							c-9.5-20.6-27.7-47.2-51.1-74.2"/>
					</g>
					<g id="g7559" transform="translate(355,104)">
						<path id="path7561" class="st10" d="M0,0c-44.8-47.6-99-96.5-99-96.5S-240.5,31.9-271.1,98.2c-11.7,25.4-18.3,53.9-18.3,83.9
							C-289.4,290.3-204.2,378-99,378c7.8,0,15.5-0.5,23-1.4"/>
					</g>
					<g id="g7563" transform="translate(195.9995,409.2178)">
						<path id="path7565" class="st10" d="M0,0c16.6,8.5,35.2,13.5,54.9,14.3"/>
					</g>
					<g id="g7567" transform="translate(358.8765,374.8857)">
						<path id="path7569" class="st10" d="M0,0c20.2-24.3,32.5-55.9,32.5-90.4c0-76.8-60.6-139.1-135.3-139.1
							s-135.3,62.3-135.3,139.1c0,41.8,17.9,79.3,46.3,104.8"/>
					</g>
					<g id="g7571" transform="translate(291.2852,394)">
						<path id="path7573" class="st10" d="M0,0h29.5"/>
					</g>
					<g id="g7575" transform="translate(291.2852,335.667)">
						<path id="path7577" class="st10" d="M0,0h29.5"/>
					</g>
					<g id="g7579" transform="translate(291.2852,277.333)">
						<path id="path7581" class="st10" d="M0,0h29.5"/>
					</g>
					<g id="g7583" transform="translate(291.2852,219)">
						<path id="path7585" class="st10" d="M0,0h29.5"/>
					</g>
					<g id="g7587" transform="translate(155.4043,196.7148)">
						<path id="path7589" class="st10" d="M0,0v103.8h99.7V-51.3"/>
					</g>
					<path id="path7591" class="st10" d="M332.1,449.2H280v55.3h52.1V449.2z"/>
					<g id="g7593" transform="translate(255.4272,145.4473)">
						<path id="path7595" class="st10" d="M0,0v303.8h101.2V50"/>
					</g>
					<g id="g7597" transform="translate(189.3989,340.2773)">
						<path id="path7599" class="st10" d="M0,0v-38.4"/>
					</g>
					<g id="g7601" transform="translate(220.1411,372.3223)">
						<path id="path7603" class="st10" d="M0,0v-70.5"/>
					</g>
					<g id="g7605" transform="translate(188.27,262.3789)">
						<path id="path7607" class="st10" d="M0,0v-15.4"/>
					</g>
					<g id="g7609" transform="translate(188.27,208.248)">
						<path id="path7611" class="st10" d="M0,0v-15.4"/>
					</g>
					<g id="g7613" transform="translate(221.27,262.3789)">
						<path id="path7615" class="st10" d="M0,0v-15.4"/>
					</g>
					<g id="g7617" transform="translate(221.27,208.248)">
						<path id="path7619" class="st10" d="M0,0v-15.4"/>
					</g>
				</g>
			</g>
		</g>
	</g>
</g>
</svg>
