<?xml version="1.0" encoding="utf-8"?>
<!-- Generator: Adobe Illustrator 26.0.1, SVG Export Plug-In . SVG Version: 6.00 Build 0)  -->
<svg version="1.1" id="Layer_1" xmlns="http://www.w3.org/2000/svg" xmlns:xlink="http://www.w3.org/1999/xlink" x="0px" y="0px"
	 viewBox="0 0 512 512" style="enable-background:new 0 0 512 512;" xml:space="preserve">
<style type="text/css">
	.st0{fill:url(#SVGID_1_);}
	.st1{fill:#FFFFFF;}
	.st2{fill:url(#SVGID_00000057850847271225826740000017162812765019640972_);}
	.st3{fill:url(#SVGID_00000124134309036951435260000016614216862729941174_);}
	.st4{fill:url(#SVGID_00000097489207002597219180000014350409666398482328_);}
	.st5{fill:url(#SVGID_00000094613505006673868540000009178001775593029799_);}
	.st6{fill:#E9E9EA;}
</style>
<g>
	
		<radialGradient id="SVGID_1_" cx="255.95" cy="272.15" r="173.7451" gradientTransform="matrix(1 0 0 -1 0 514)" gradientUnits="userSpaceOnUse">
		<stop  offset="0" style="stop-color:#F7941D"/>
		<stop  offset="0.5028" style="stop-color:#F7921E"/>
		<stop  offset="0.6839" style="stop-color:#F68B1F"/>
		<stop  offset="0.8131" style="stop-color:#F57F22"/>
		<stop  offset="0.9167" style="stop-color:#F36E25"/>
		<stop  offset="1" style="stop-color:#F15A29"/>
	</radialGradient>
	<path class="st0" d="M63.1,109.7h385.7c7.9,0,14.3,6.4,14.3,14.3v235.7c0,7.9-6.4,14.3-14.3,14.3H63.1c-7.9,0-14.3-6.4-14.3-14.3
		V124C48.9,116.1,55.3,109.7,63.1,109.7z"/>
	<path class="st1" d="M77.4,138.3h357.1v207.1H77.4V138.3z"/>
	
		<radialGradient id="SVGID_00000074437644602529483630000001924098939777302164_" cx="252.271" cy="102.6492" r="248.0947" gradientTransform="matrix(1 0 0 -1 0 514)" gradientUnits="userSpaceOnUse">
		<stop  offset="0" style="stop-color:#F7941D"/>
		<stop  offset="0.5028" style="stop-color:#F7921E"/>
		<stop  offset="0.6839" style="stop-color:#F68B1F"/>
		<stop  offset="0.8131" style="stop-color:#F57F22"/>
		<stop  offset="0.9167" style="stop-color:#F36E25"/>
		<stop  offset="1" style="stop-color:#F15A29"/>
	</radialGradient>
	<path style="fill:url(#SVGID_00000074437644602529483630000001924098939777302164_);" d="M291.7,416.9h-71.4l7.1-42.9h57.1
		L291.7,416.9z"/>
	
		<radialGradient id="SVGID_00000065039771273238581280000006506204829736544398_" cx="252.271" cy="102.6492" r="248.0947" gradientTransform="matrix(1 0 0 -1 0 514)" gradientUnits="userSpaceOnUse">
		<stop  offset="0" style="stop-color:#F7941D"/>
		<stop  offset="0.5028" style="stop-color:#F7921E"/>
		<stop  offset="0.6839" style="stop-color:#F68B1F"/>
		<stop  offset="0.8131" style="stop-color:#F57F22"/>
		<stop  offset="0.9167" style="stop-color:#F36E25"/>
		<stop  offset="1" style="stop-color:#F15A29"/>
	</radialGradient>
	<path style="fill:url(#SVGID_00000065039771273238581280000006506204829736544398_);" d="M191.7,416.9h128.6v28.6H191.7V416.9z"/>
	
		<radialGradient id="SVGID_00000109711097489062343840000008584451851050766743_" cx="286.3571" cy="362.313" r="628.26" gradientTransform="matrix(1 0 0 -1 0 514)" gradientUnits="userSpaceOnUse">
		<stop  offset="0" style="stop-color:#F7941D"/>
		<stop  offset="0.5028" style="stop-color:#F7921E"/>
		<stop  offset="0.6839" style="stop-color:#F68B1F"/>
		<stop  offset="0.8131" style="stop-color:#F57F22"/>
		<stop  offset="0.9167" style="stop-color:#F36E25"/>
		<stop  offset="1" style="stop-color:#F15A29"/>
	</radialGradient>
	<path style="fill:url(#SVGID_00000109711097489062343840000008584451851050766743_);" d="M106,59.7h300v257.1H106V59.7z"/>
	<path class="st1" d="M191.7,202.6v57.1l57.1-28.6L191.7,202.6z"/>
	
		<radialGradient id="SVGID_00000169530886482193912470000015345662927898079362_" cx="450.8004" cy="297.3971" r="268.8882" gradientTransform="matrix(1 0 0 -1 0 514)" gradientUnits="userSpaceOnUse">
		<stop  offset="5.025126e-03" style="stop-color:#F7941D"/>
		<stop  offset="0.2415" style="stop-color:#F68321"/>
		<stop  offset="0.7249" style="stop-color:#F26527"/>
		<stop  offset="1" style="stop-color:#F15A29"/>
	</radialGradient>
	<path style="fill:url(#SVGID_00000169530886482193912470000015345662927898079362_);" d="M284.6,259.7l85.7,28.6V174l-85.7,28.6
		L284.6,259.7L284.6,259.7z"/>
	<circle class="st1" cx="248.9" cy="131.2" r="42.9"/>
	<circle class="st1" cx="177.4" cy="145.4" r="28.6"/>
	
		<ellipse transform="matrix(0.1602 -0.9871 0.9871 0.1602 79.5247 355.8701)" class="st6" cx="248.9" cy="131.2" rx="14.3" ry="14.3"/>
</g>
<path d="M191.7,447.5c-1.2,0-2.1-0.9-2.1-2.1v-28.6c0-1.2,0.9-2.1,2.1-2.1h26.7l6.5-38.6H63.1c-9,0-16.4-7.4-16.4-16.4V124
	c0-9,7.4-16.4,16.4-16.4h40.8V59.7c0-1.2,0.9-2.1,2.1-2.1h300.1c1.2,0,2.1,0.9,2.1,2.1v47.9h40.7c9,0,16.4,7.4,16.4,16.4v235.7
	c0,9-7.4,16.4-16.4,16.4H287.1l6.5,38.6h26.7c1.2,0,2.1,0.9,2.1,2.1v28.6c0,1.2-0.9,2.1-2.1,2.1H191.7z M193.9,443.3h124.2V419
	H193.9V443.3z M222.8,414.7h66.4l-6.5-38.6h-53.5L222.8,414.7z M63.1,111.9c-6.7,0-12.1,5.4-12.1,12.1v235.7
	c0,6.7,5.4,12.1,12.1,12.1h385.8c6.7,0,12.1-5.4,12.1-12.1v-5h-0.1V124c0-6.7-5.4-12.1-12.1-12.1h-40.7v24.3h26.4
	c1.2,0,2.1,0.9,2.1,2.1v207.1c0,1.2-0.9,2.1-2.1,2.1H77.4c-1.2,0-2.1-0.9-2.1-2.1V138.3c0-1.2,0.9-2.1,2.1-2.1h26.4v-24.3H63.1z
	 M79.6,343.3h352.8V140.4h-24.3v176.5c0,1.2-0.9,2.1-2.1,2.1H106c-1.2,0-2.1-1-2.1-2.2V140.4H79.6V343.3z M108.1,314.8h295.7V61.9
	H108.1V314.8z"/>
<path d="M149.1,290.4c-1.2,0-2.1-0.9-2.1-2.1V174c0-1.2,0.9-2.1,2.1-2.1h10.4l-6.2-8.1c-4-5.2-6.3-11.8-6.3-18.3
	c0-16.9,13.8-30.7,30.7-30.7c7.3,0,14.3,2.7,19.8,7.5l6.1,5.3l2-7.8c2.1-8,6.2-15.2,12-20.8c8.4-8.2,19.6-12.7,31.4-12.7
	c12.2,0,23.7,4.8,32.2,13.5c17.2,17.7,16.9,46.2-0.8,63.5l-8.7,8.6h13c1.2,0,2.1,0.9,2.1,2.1v25.5l82.9-27.6
	c0.2-0.1,0.4-0.1,0.6-0.1c0.4,0,0.9,0.1,1.3,0.4c0.6,0.5,0.9,1.2,1,2v114c0,1.2-0.9,2.1-2.1,2.1c-0.1,0-0.3,0-0.9-0.2l-82.7-27.5
	v25.6c0,1.2-0.9,2.1-2.1,2.1H149.1z M151,286.2h131.4v-110H151V286.2z M286.7,204.2v54l81.4,27.1V177.1L286.7,204.2z M204.8,159.2
	c-0.9,1.7-1.9,3.3-3,4.8l-5.6,7.9h30.3l-9.1-8.6c-1.6-1.5-3-3.2-4.3-4.9l-4.8-6L204.8,159.2z M248.9,90.4
	c-22.4,0.1-40.7,18.4-40.7,40.7c0,22.4,18.3,40.7,40.7,40.7s40.7-18.3,40.7-40.7C289.6,108.7,271.3,90.4,248.9,90.4L248.9,90.4
	L248.9,90.4z M177.4,119c-14.6,0-26.4,11.8-26.4,26.4s11.8,26.4,26.4,26.4s26.4-11.8,26.4-26.4S192,119,177.4,119z"/>
<path d="M191.7,261.9c-0.4,0-0.8-0.1-1.1-0.3c-0.7-0.4-1.1-1.2-1.1-2.1l0-56.9c0-0.3,0.1-0.6,0.3-1c0.4-0.7,1.2-1.2,2-1.2
	c0.3,0,0.6,0.1,0.9,0.2l57.1,28.6c0.4,0.2,0.8,0.5,1,1c0.5,1.1,0.1,2.3-1,2.9l-57.1,28.6C192.4,261.8,192,261.9,191.7,261.9z
	 M193.9,256.2l50.2-25.1L193.9,206V256.2z"/>
<path d="M248.9,147.6c-9,0-16.4-7.4-16.4-16.4s7.4-16.4,16.4-16.4c9,0,16.4,7.4,16.4,16.4S257.9,147.6,248.9,147.6z M248.9,119
	c-6.7,0-12.1,5.4-12.1,12.1s5.4,12.1,12.1,12.1s12.1-5.4,12.1-12.1S255.6,119,248.9,119z"/>
</svg>
