<?xml version="1.0" encoding="utf-8"?>
<!-- Generator: Adobe Illustrator 26.0.1, SVG Export Plug-In . SVG Version: 6.00 Build 0)  -->
<svg version="1.1" id="svg5775" xmlns:svg="http://www.w3.org/2000/svg"
	 xmlns="http://www.w3.org/2000/svg" xmlns:xlink="http://www.w3.org/1999/xlink" x="0px" y="0px" viewBox="0 0 682.7 682.7"
	 style="enable-background:new 0 0 682.7 682.7;" xml:space="preserve">
<style type="text/css">
	.st0{clip-path:url(#SVGID_00000143576800251983608920000006990959164451332541_);}
	.st1{fill-rule:evenodd;clip-rule:evenodd;fill:url(#path5793_00000039115564605247938850000014629073809048027823_);}
	.st2{fill-rule:evenodd;clip-rule:evenodd;fill:#FFFFFF;}
	.st3{fill-rule:evenodd;clip-rule:evenodd;fill:#26BF56;}
	.st4{fill:none;stroke:#000000;stroke-width:8;stroke-linecap:round;stroke-linejoin:round;stroke-miterlimit:3.484;}
	.st5{fill:none;stroke:#000000;stroke-width:11;stroke-linecap:round;stroke-linejoin:round;stroke-miterlimit:3.484;}
	.st6{fill:none;stroke:#000000;stroke-width:26.6667;stroke-linecap:round;stroke-linejoin:round;stroke-miterlimit:3.484;}
	.st7{fill:none;stroke:#000000;stroke-width:26.6667;stroke-linecap:round;stroke-linejoin:round;stroke-miterlimit:30.568;}
</style>
<g id="g5781" transform="matrix(1.3333333,0,0,-1.3333333,0,682.66667)">
	<g id="g5783">
		<g>
			<defs>
				<rect id="SVGID_1_" x="-85.3" y="-85.3" width="682.7" height="682.7"/>
			</defs>
			<clipPath id="SVGID_00000134932121054688587020000005065614810183709627_">
				<use xlink:href="#SVGID_1_"  style="overflow:visible;"/>
			</clipPath>
			<g id="g5785" style="clip-path:url(#SVGID_00000134932121054688587020000005065614810183709627_);">
				<g id="g5791" transform="translate(141.4028,500.6152)">
					
						<radialGradient id="path5793_00000008839000566810615990000011334251712088432791_" cx="64.362" cy="43.8555" r="625.8901" gradientUnits="userSpaceOnUse">
						<stop  offset="0" style="stop-color:#F7941D"/>
						<stop  offset="0.5028" style="stop-color:#F7921E"/>
						<stop  offset="0.6839" style="stop-color:#F68B1F"/>
						<stop  offset="0.8131" style="stop-color:#F57F22"/>
						<stop  offset="0.9167" style="stop-color:#F36E25"/>
						<stop  offset="1" style="stop-color:#F15A29"/>
					</radialGradient>
					
						<path id="path5793" style="fill-rule:evenodd;clip-rule:evenodd;fill:url(#path5793_00000008839000566810615990000011334251712088432791_);" d="
						M0,0c-5.8,1.5-17.6,3.2-26.6-3.3c-6-4.3-12.2-17.5,1.3-21.7c3.2-1,13.7-10.9,9.8-17.4c-3.4-5.6-11.8-9.9-8.4-20
						C-21.7-68.8-16.2-72.8-7-82c10-9.9,5.8-27.3-9.4-39.5c-6.8-5.5-14.8-24.1-23-31.2h125c-1.3,1.4-2.5,2.9-3.6,4.7
						c-11.4,17.7,33.4,9.1-16.6,35.9c-8.9,4.8-19,17.3-6.8,23.4c6.7,3.3,16.9,7.4,2.8,23.2c-7.9,8.8,7.9,4.9,12.3,19.6
						c3.8,12.7-3.8,20.5-12.8,20.9c-15.7,0.6-21.3-18.7-40,12.1C19-9.6,3.7-1,0,0"/>
				</g>
				<g id="g5795" transform="translate(226.9453,348.001)">
					<path id="path5797" class="st2" d="M0,0h-125c-2.1-1.8-4.2-2.9-6.3-2.8c-2.5,0.1-6,1.6-10.1,2.8h-16.2
						c-4.4-1.8-8.7-5.5-12.7-12.4c-9.5-16.6,27.8-26.8,13.8-47.3c-7.2-10.5-21.3,2.5-31-2.9C-198.8-69-200-91-183.3-95.4
						c4.6-1.2,16.4-2.5,12.5-8.9c-3.9-6.3-4.2-18.9,7.2-24.7c12-6.1,21,6.5,26.9,13.5c6,7.1,27.3,2.7,25.4-16.2
						c-1.2-11.2-14.7-20.7-14.7-29.2c0.1-9,0.2-16.6,0.7-23.1h165c4.3,2.4,8.8,5.5,11.4,10c12.5,21,26.9,27.1,47.7,35.6
						c10.1,4.2-12.8,22.9,14.1,21.8c5-0.2,2.8,5.2,15.6,5.2c8.3,0,4.5,16.8-2.7,24.8c-5.1,5.6-17.3,28.5,5.1,28.5
						c14.9,0,12.3-2.3,20.5-2.3c4,0,14.3,1.4,11.9-8.4c-10.3-41,21.9-9.7,20.3-33.6c-1-14.1,30.3-15.2,29,15
						c-0.6,14.6,12.2,14.4,12.2,28.7c0,6.2-6.1,13.5-3.4,23.5c2.9,10.9,15.7,18.2,24.2,15.1c8.9-3.2,0.3,6.2,7.6,16.4
						C258,3,238.6,0,239.4,9.7c0,0.1-5.8,9.9-10.4,9.7c-6.5-0.3,1.5-5.4-20.8-4.5c-7.5,0.3-16.2-5.6-30.9-13.2
						c-11-5.6-1.7-22.6-6.8-23.4c-9.3-1.5-22.5,2.2-35.1,6.3c-5.4,1.8-2.7,23.3-26.4,19.5c-12.5-2-6.5-19.6-10.5-24.4
						c-4.7-5.5-16.9-6.6-29.8,1.9c-6.7,4.4-26.9-2.6-30.2,6.6C23.7-9.9,9.7-10.2,0,0"/>
				</g>
				<g id="g5799" transform="translate(266.6758,164.002)">
					<path id="path5801" class="st3" d="M0,0h-165c0.8-10.3,2.4-18.1,6.2-24.9c4-7.3,8.2-23.1,14.9-28c14.2-10.6,14.3-59.7,30.7-78
						c7.6-8.4,11.1-34.4,37.3-17.6c4,2.6,11.1,14.7,21.2,15.1c5.6,0.2,1.3,32,6.9,43.4c9.1,18.3,9.7,0.8,6.4,27.6
						C-47.8-9.7-33-47.9-26.4-27.2c4.9,15.6,12.1,4.6,13.3,19.3C-12.9-5.5-6.5-3.6,0,0"/>
				</g>
				<g id="g5803" transform="translate(102.5605,348.001)">
					<path id="path5805" class="st4" d="M0,0h123.8"/>
				</g>
				<g id="g5807" transform="translate(102.4712,164.002)">
					<path id="path5809" class="st4" d="M0,0h163.4"/>
				</g>
				<g id="g5811" transform="translate(143.127,53.3682)">
					<path id="path5813" class="st5" d="M0,0c2.7-8.1,5.9-15.3,10.4-20.3c7.6-8.4,11.1-34.4,37.3-17.6c4,2.6,11.1,14.7,21.2,15.1
						c5.6,0.2,1.3,32,6.9,43.4c9.1,18.3,9.7,0.8,6.4,27.6c-6.5,52.7,8.4,14.5,14.9,35.2c4.9,15.6,12.1,4.6,13.3,19.3
						c0.3,3.9,17.9,6.7,24.5,17.9c12.5,21,26.9,27.1,47.7,35.6c10.1,4.2-12.8,22.9,14.1,21.8c5-0.2,2.8,5.2,15.6,5.2
						c8.3,0,4.5,16.8-2.7,24.8c-5.1,5.6-17.3,28.5,5.1,28.5c14.9,0,12.3-2.3,20.5-2.3c4,0,14.3,1.4,11.9-8.4
						c-10.3-41,21.9-9.7,20.3-33.6c-1-14.1,30.3-15.2,29,15c-0.6,14.6,12.2,14.4,12.2,28.7c0,6.2-6.1,13.5-3.4,23.5
						c2.9,10.9,15.7,18.2,24.2,15.1c8.9-3.2,0.3,6.2,7.6,16.4c4.7,6.6-14.7,3.5-13.9,13.2c0,0.1-5.8,9.9-10.4,9.7
						c-6.5-0.3,1.5-5.4-20.8-4.5c-7.5,0.3-16.2-5.6-30.9-13.2c-11-5.6-1.7-22.6-6.8-23.4c-9.3-1.5-22.5,2.2-35.1,6.3
						c-5.4,1.8-2.7,23.3-26.4,19.5c-12.5-2-6.5-19.6-10.5-24.4c-4.7-5.5-16.9-6.6-29.8,1.9c-6.7,4.4-26.9-2.6-30.2,6.6
						c-16.6,2.2-32.3,1.4-42,16.5c-11.4,17.7,33.4,9.1-16.6,35.9c-8.9,4.8-19,17.3-6.8,23.4c6.7,3.3,16.9,7.4,2.8,23.2
						c-7.9,8.8,7.9,4.9,12.3,19.6c3.8,12.7-3.8,20.5-12.8,20.9c-15.7,0.6-21.3-18.7-40,12.1c-2,3.2-17.2,11.9-20.9,12.8
						c-5.8,1.5-17.6,3.2-26.6-3.3c-6-4.3-12.2-17.5,1.3-21.7c3.2-1,13.7-10.9,9.8-17.4c-3.4-5.6-11.8-9.9-8.4-20
						c2.2-6.5,7.7-10.5,16.9-19.7c10-9.9,5.8-27.3-9.4-39.5c-8.6-6.9-19-34.4-29.4-33.9c-7.6,0.4-25.6,13.8-39.1-9.6
						c-9.5-16.6,27.8-26.8,13.8-47.3c-7.2-10.5-21.3,2.5-31-2.9c-11.3-6.4-12.5-28.3,4.2-32.8c4.6-1.2,16.4-2.5,12.5-8.9
						c-3.9-6.3-4.2-18.9,7.2-24.7c12-6.1,21,6.5,26.9,13.5c6,7.1,27.3,2.7,25.4-16.2c-1.2-11.2-14.7-20.7-14.7-29.2
						c0.2-23.1,0.7-36.9,6.9-48c0.5-0.9,1-1.9,1.5-3"/>
				</g>
				<g id="g5815" transform="translate(211.3794,211.002)">
					<path id="path5817" class="st6" d="M0,0c24.8,0,45,20.2,45,45S24.8,90,0,90c-24.8,0-45-20.2-45-45S-24.8,0,0,0z"/>
				</g>
				<g id="g5819" transform="translate(211.3794,297.3232)">
					<path id="path5821" class="st6" d="M0,0v-4.7"/>
				</g>
				<g id="g5823" transform="translate(182.1606,285.2207)">
					<path id="path5825" class="st6" d="M0,0l3.3-3.3"/>
				</g>
				<g id="g5827" transform="translate(170.0576,256.002)">
					<path id="path5829" class="st6" d="M0,0h4.7"/>
				</g>
				<g id="g5831" transform="translate(182.1606,226.7832)">
					<path id="path5833" class="st6" d="M0,0l3.3,3.3"/>
				</g>
				<g id="g5835" transform="translate(211.3794,214.6807)">
					<path id="path5837" class="st6" d="M0,0v4.7"/>
				</g>
				<g id="g5839" transform="translate(240.5981,226.7832)">
					<path id="path5841" class="st6" d="M0,0l-3.3,3.3"/>
				</g>
				<g id="g5843" transform="translate(252.7007,256.002)">
					<path id="path5845" class="st6" d="M0,0h-4.7"/>
				</g>
				<g id="g5847" transform="translate(240.5981,285.2207)">
					<path id="path5849" class="st6" d="M0,0l-3.3-3.3"/>
				</g>
				<g id="g5851" transform="translate(131.3018,96.7959)">
					<path id="path5853" class="st6" d="M0,0L0,0"/>
				</g>
				<g id="g5855" transform="translate(211.3755,256.002)">
					<path id="path5857" class="st7" d="M0,0L0,0"/>
				</g>
			</g>
		</g>
	</g>
</g>
</svg>
