<?xml version="1.0" encoding="utf-8"?>
<!-- Generator: Adobe Illustrator 26.0.1, SVG Export Plug-In . SVG Version: 6.00 Build 0)  -->
<svg version="1.1" id="Layer_1" xmlns="http://www.w3.org/2000/svg" xmlns:xlink="http://www.w3.org/1999/xlink" x="0px" y="0px"
	 viewBox="0 0 512 512" style="enable-background:new 0 0 512 512;" xml:space="preserve">
<style type="text/css">
	.st0{fill-rule:evenodd;clip-rule:evenodd;fill:url(#SVGID_1_);}
	.st1{fill-rule:evenodd;clip-rule:evenodd;fill:#FD8D47;}
	.st2{fill-rule:evenodd;clip-rule:evenodd;fill:url(#SVGID_00000085215924494253337550000002608340792364360838_);}
	.st3{fill-rule:evenodd;clip-rule:evenodd;fill:url(#SVGID_00000062172880715238065220000010603328827859250575_);}
	.st4{fill-rule:evenodd;clip-rule:evenodd;fill:url(#SVGID_00000052786418047914860280000013721727906759910542_);}
	.st5{fill-rule:evenodd;clip-rule:evenodd;fill:#ECEFF1;}
	.st6{fill-rule:evenodd;clip-rule:evenodd;fill:#D1D1D6;}
	.st7{fill-rule:evenodd;clip-rule:evenodd;fill:#FFFFFF;}
	.st8{fill-rule:evenodd;clip-rule:evenodd;fill:#FFE4CC;}
	.st9{fill-rule:evenodd;clip-rule:evenodd;fill:url(#SVGID_00000024700725910260120900000004807841647224588220_);}
	.st10{fill-rule:evenodd;clip-rule:evenodd;}
</style>
<g>
	<g>
		<g>
			<g>
				
					<radialGradient id="SVGID_1_" cx="272" cy="-32" r="322.8204" gradientTransform="matrix(1 0 0 -1 0 514)" gradientUnits="userSpaceOnUse">
					<stop  offset="0" style="stop-color:#F7941D"/>
					<stop  offset="0.2376" style="stop-color:#F68321"/>
					<stop  offset="0.7235" style="stop-color:#F26527"/>
					<stop  offset="1" style="stop-color:#F15A29"/>
				</radialGradient>
				<path class="st0" d="M370.7,290.4L284,362.3l46.5,107.9c1.5,3.5,6.3,3.8,8.3,0.6l30-48.4l55.8,11.4c3.7,0.8,6.7-2.9,5.2-6.4
					L370.7,290.4z"/>
				<path class="st1" d="M370.7,290.4l-11.5,9.5l55,127.6c0.6,1.5,0.5,3-0.3,4.2l10.6,2.2c3.7,0.8,6.7-2.9,5.2-6.4L370.7,290.4z
					 M327.7,463.7l27.3-44l13.8,2.8l-30,48.4c-2,3.2-6.8,2.9-8.3-0.6L327.7,463.7z"/>
				
					<radialGradient id="SVGID_00000122687878431395393410000016425487463184219041_" cx="272" cy="-32" r="322.8204" gradientTransform="matrix(1 0 0 -1 0 514)" gradientUnits="userSpaceOnUse">
					<stop  offset="0" style="stop-color:#F7941D"/>
					<stop  offset="0.2376" style="stop-color:#F68321"/>
					<stop  offset="0.7235" style="stop-color:#F26527"/>
					<stop  offset="1" style="stop-color:#F15A29"/>
				</radialGradient>
				<path style="fill-rule:evenodd;clip-rule:evenodd;fill:url(#SVGID_00000122687878431395393410000016425487463184219041_);" d="
					M242.8,356.7l-62.3,133.9c-1.6,3.4-6.4,3.6-8.3,0.4l-28.6-49.2l-56.1,9.8c-3.7,0.6-6.6-3.1-5-6.6l61.6-132.4L242.8,356.7z"/>
				<path class="st1" d="M242.8,356.7l-62.3,133.9c-1.6,3.4-6.4,3.6-8.3,0.4l-28.6-49.2l-56.1,9.8c-3.7,0.6-6.6-3.1-5-6.6l3.8-8.1
					l49.4-8.6l28.6,49.2c1.9,3.3,6.7,3,8.3-0.4l58.5-125.6L242.8,356.7z"/>
				
					<radialGradient id="SVGID_00000076571827974384214150000008514390062995133861_" cx="256.0152" cy="309.3774" r="187.0803" gradientTransform="matrix(1 0 0 -1 0 514)" gradientUnits="userSpaceOnUse">
					<stop  offset="0" style="stop-color:#F7941D"/>
					<stop  offset="0.5028" style="stop-color:#F7921E"/>
					<stop  offset="0.6839" style="stop-color:#F68B1F"/>
					<stop  offset="0.8131" style="stop-color:#F57F22"/>
					<stop  offset="0.9167" style="stop-color:#F36E25"/>
					<stop  offset="1" style="stop-color:#F15A29"/>
				</radialGradient>
				<path style="fill-rule:evenodd;clip-rule:evenodd;fill:url(#SVGID_00000076571827974384214150000008514390062995133861_);" d="
					M279.8,26.7c37.3,27.9,28.8,24.8,75.3,27.4c17.9,1,32.4,13.2,36.4,30.6c3.9,16.4,5.7,37.2,18.3,49l21.8,20.4
					c13,12.2,16.3,30.9,8.3,46.8c-21,41.5-19.4,32.7-13.9,78.9c2.1,17.8-7.3,34.1-23.8,41.2c-42.8,18.3-35.9,12.5-61.4,51.5
					c-9.8,15-27.6,21.4-44.7,16.3c-44.6-13.5-35.6-13.5-80.1,0c-17.1,5.2-34.9-1.3-44.7-16.3c-25.5-39-18.6-33.2-61.4-51.5
					c-16.4-7-25.9-23.4-23.8-41.2c5.5-46.2,7.1-37.4-13.9-78.9c-8.1-16-4.8-34.6,8.3-46.8c33.9-31.9,29.4-24.1,40.1-69.4
					c4.1-17.4,18.6-29.6,36.4-30.6c46.5-2.6,38,0.5,75.3-27.4C246.5,16,265.5,16,279.8,26.7z"/>
				
					<radialGradient id="SVGID_00000143588026582343675900000016621509969073377171_" cx="319.1107" cy="309.3763" r="158.4594" gradientTransform="matrix(1 0 0 -1 0 514)" gradientUnits="userSpaceOnUse">
					<stop  offset="5.025126e-03" style="stop-color:#F7941D"/>
					<stop  offset="0.2415" style="stop-color:#F68321"/>
					<stop  offset="0.7249" style="stop-color:#F26527"/>
					<stop  offset="1" style="stop-color:#F15A29"/>
				</radialGradient>
				<path style="fill-rule:evenodd;clip-rule:evenodd;fill:url(#SVGID_00000143588026582343675900000016621509969073377171_);" d="
					M279.8,26.7c37.3,27.9,28.8,24.8,75.3,27.4c17.9,1,32.4,13.2,36.4,30.6c3.9,16.4,5.7,37.2,18.3,49l21.8,20.4
					c13,12.2,16.3,30.9,8.3,46.8c-21,41.5-19.4,32.7-13.9,78.9c2.1,17.8-7.3,34.1-23.8,41.2c-42.8,18.3-35.9,12.5-61.4,51.5
					c-9.5,14.5-26.5,21-43.2,16.7c9.1-2.4,17.2-8.2,22.8-16.7c25.5-39,18.6-33.2,61.4-51.5c16.4-7,25.9-23.4,23.8-41.2
					c-5.5-46.2-7.1-37.4,13.9-78.9c8.1-16,4.8-34.6-8.3-46.8l-21.8-20.4c-12.6-11.8-14.4-32.5-18.3-49
					c-4.1-17.4-18.6-29.6-36.4-30.6c-46.5-2.6-38,0.5-75.3-27.4c-4.2-3.1-8.8-5.4-13.6-6.7C257.3,17,269.7,19.2,279.8,26.7
					L279.8,26.7z M245.8,380c-6.8,1.5-15.6,4.5-29.9,8.8c-7.4,2.2-14.9,2.3-21.9,0.4c0.5-0.1,1-0.3,1.5-0.4
					C225.8,379.7,231.4,376.8,245.8,380L245.8,380z"/>
				<circle class="st5" cx="256" cy="204.6" r="121.1"/>
				<path class="st6" d="M256,83.6c3.3,0,6.5,0.1,9.7,0.4c-62.3,4.9-111.4,57.1-111.4,120.7s49.1,115.8,111.4,120.7
					c-3.2,0.3-6.4,0.4-9.7,0.4c-66.9,0-121.1-54.2-121.1-121.1S189.1,83.6,256,83.6L256,83.6z"/>
			</g>
			<g>
				<path class="st7" d="M256,120.7l70.2,30.1v56.8c0,41.7-29.8,73.9-70.2,80.9c-40.4-7-70.2-39.2-70.2-80.9v-56.8L256,120.7z"/>
				<path class="st8" d="M256,120.7l70.2,30.1v56.8c0,41.7-29.8,73.9-70.2,80.9c-2.4-0.4-4.7-0.9-7-1.5
					c36.8-9.3,63.3-40.2,63.3-79.4v-56.8L249,123.7L256,120.7z"/>
				
					<radialGradient id="SVGID_00000005255495983652141270000012924727547602552745_" cx="256.05" cy="309.3492" r="37.8151" gradientTransform="matrix(1 0 0 -1 0 514)" gradientUnits="userSpaceOnUse">
					<stop  offset="5.025126e-03" style="stop-color:#F7941D"/>
					<stop  offset="0.2415" style="stop-color:#F68321"/>
					<stop  offset="0.7249" style="stop-color:#F26527"/>
					<stop  offset="1" style="stop-color:#F15A29"/>
				</radialGradient>
				<path style="fill-rule:evenodd;clip-rule:evenodd;fill:url(#SVGID_00000005255495983652141270000012924727547602552745_);" d="
					M246.7,210.9l34.5-34.8c4.1-4.1,10.7-4.1,14.9,0c4.1,4.1,4.1,10.7,0,14.9c-14,14.1-27.9,28.3-41.9,42.4
					c-4.1,4.1-10.8,4.1-14.9,0L216,210.1c-4.1-4.1-4.1-10.8,0-14.9s10.8-4.1,14.9,0L246.7,210.9z"/>
			</g>
		</g>
	</g>
</g>
<path class="st10" d="M176.7,498c-0.7,0-1.3-0.4-1.7-1l-32.4-55.7l-63.4,11.1c-0.2,0-0.4,0.1-0.5,0.1l0,0c-0.6,0-1.2-0.3-1.6-0.8
	c-0.4-0.6-0.5-1.3-0.2-1.9l0.1-0.1l55.6-119.4l-5.7-2.4c-1.5-0.6-3.1-1.3-4.7-2.1l-2.3-0.9c-2.7-1.1-5.6-2.3-8.9-3.7l-1.7-0.7
	C92,313,82,295.7,84.2,277.1c0.3-2.4,0.6-4.6,0.8-6.7c0.2-1.7,0.4-3.3,0.6-4.8c3.6-28.6,3.4-30.2-9.9-56l-1.4-2.8
	c-1.2-2.3-2.5-4.8-3.9-7.6c-8.4-16.7-4.9-36.5,8.7-49.2c3.2-3,6-5.6,8.5-7.9c21.1-19.6,21.9-21,28.4-49.2c0.3-1.5,0.7-3,1.1-4.7
	c0.5-2.1,1-4.3,1.5-6.6c4.3-18.2,19.7-31.1,38.3-32.2c4.5-0.2,8.3-0.4,11.6-0.6c28.8-1.4,30.3-2,53.4-19.4l1.6-1.2
	c2.8-2.2,5.2-4,7.6-5.7c7.3-5.5,16-8.4,25-8.4c9.1,0,17.7,2.9,25,8.4c2.2,1.6,4.1,3.1,6,4.5c1.1,0.9,2.2,1.7,3.3,2.5
	C313.5,47,315,47.6,343.8,49c3.3,0.2,7.1,0.4,11.6,0.6c18.6,1,34,14,38.2,32.2c0.6,2.4,1.1,4.5,1.5,6.6c0.4,1.6,0.7,3.2,1.1,4.7
	c6.5,28.1,7.3,29.5,28.4,49.2l0.7,0.6c1.3,1.2,2.7,2.5,4.2,4c1.1,1.1,2.3,2.2,3.6,3.4c13.6,12.7,17.1,32.5,8.7,49.2
	c-1.6,3.3-3.2,6.3-4.7,9l-0.6,1.3c-13.2,25.7-13.4,27.3-9.9,55.9l0.2,1.4c0.2,1.3,0.3,2.7,0.5,4.1c0.2,1.9,0.5,4,0.8,6.2
	c2.2,18.5-7.9,35.9-25,43.2c-1.3,0.5-2.6,1.1-3.8,1.6c-1.4,0.6-2.8,1.2-4.1,1.7l-5.9,2l2.3,5.7l43.5,100.7c0.3,0.7,0.2,1.4-0.3,2
	c-0.4,0.5-1,0.8-1.6,0.8c0,0-0.2,0-0.2,0l-0.1,0l-63.2-13l-33.9,54.8c-0.4,0.6-1,1-1.7,1h-0.2c-0.7-0.1-1.3-0.5-1.6-1.2l-38.4-89
	l-9.8-3c-13.7-4.2-20.5-6.3-28.1-6.3c-6.2,0-12.4,1.5-22.2,4.5l-2.6,0.8l-52.8,113.3c-0.3,0.8-1.1,1.1-1.7,1.1H176.7z M176.5,491.6
	L225.6,386l-12,2.7c-2.9,0.7-6,1.1-9.5,1.1c-14,0-26.9-7.1-34.6-18.9c-1.1-1.7-2.1-3.2-3.1-4.7c-0.7-1-1.3-1.9-1.9-2.9l-1.4-2.1
	c-9.3-14.5-13.2-20.5-21.2-25.8l-5.8-3.9l-54,116.3l61-10.6c0.2,0,0.4-0.1,0.5-0.1l0,0c0.6,0,1.3,0.4,1.7,1.1L176.5,491.6z
	 M380.1,330c-15.9,7.3-19.2,12.4-31.4,31.2l-0.7,1.1c-0.6,0.9-1.2,1.8-1.8,2.8c-1.2,1.8-2.4,3.7-3.7,5.7
	c-7.7,11.7-20.4,18.7-34.2,18.9l-9,0.2l35.1,81.5l32.7-52.7c0.4-0.6,1-1,1.7-1c0,0,0.2,0,0.2,0l0.1,0l60.8,12.5l-44.3-102.8
	L380.1,330z M256,374c7.4,0,15.3,2.4,29.6,6.8l2.9,0.9c1.5,0.5,3.2,1,4.9,1.5c1.1,0.3,2.1,0.7,3.2,1c3.6,1.1,7.4,1.7,11.3,1.7
	c12.7,0,24.1-6.2,31.2-17.1c1.4-2.2,2.8-4.2,4-6.1c0.8-1.2,1.6-2.4,2.3-3.6c16.6-25.7,17-26,45.3-38.1l0.5-0.2c1.5-0.6,3-1.3,4.7-2
	c1.7-0.7,3.6-1.5,5.5-2.3c15.7-6.8,24.6-22.1,22.6-39.1c-0.3-2.3-0.6-4.5-0.8-6.5c-0.2-1.4-0.3-2.8-0.5-4.1l-0.1-0.9
	c-3.9-30.4-3.8-30.9,10.3-58.3l1.5-3c1.2-2.3,2.4-4.7,3.7-7.4c7.7-15.3,4.6-32.7-7.8-44.4c-2.5-2.4-4.7-4.4-7-6.5l-1.5-1.4
	c-22.5-20.9-22.8-21.4-29.6-51.3c-0.4-1.7-0.8-3.5-1.2-5.4c-0.4-1.9-0.9-3.9-1.4-6c-3.9-16.7-17.5-28.1-34.6-29
	c-4.2-0.2-8-0.4-11.4-0.6l-0.3,0c-30.5-1.5-31-1.7-55.5-20.2c-1.6-1.2-3.3-2.5-5.1-3.9c-1.3-1-2.7-2-4.1-3.1
	c-6.7-5-14.5-7.6-22.4-7.6c-8.1,0-15.9,2.7-22.6,7.7c-1.8,1.3-3.5,2.6-5.1,3.8c-0.9,0.7-1.8,1.4-2.7,2.1l-1.4,1.1
	c-24.4,18.5-25,18.7-55.6,20.2c-3.3,0.2-7.2,0.4-11.6,0.6c-17.2,1-30.7,12.4-34.7,29c-0.3,1.1-0.5,2.2-0.7,3.2
	c-0.3,1.5-0.7,2.9-1,4.3l-0.9,3.7c-6.8,29.9-7.1,30.4-29.6,51.3c-2.5,2.3-5.3,4.9-8.5,7.9c-12.5,11.7-15.5,29.2-7.8,44.5
	c1.2,2.4,2.4,4.7,3.4,6.8l1.9,3.6c13.9,27.3,14,27.8,10.3,58.2c-0.2,1.5-0.4,3.1-0.6,4.8c-0.3,2.1-0.5,4.3-0.8,6.7
	c-2,17.1,6.9,32.4,22.6,39.1l1.7,0.7c3.4,1.4,6.2,2.7,9,3.8c28.4,11.9,28.7,12.4,45.3,38l1.6,2.4c0.9,1.3,1.7,2.6,2.6,4.1
	c0.7,1,1.3,2.1,2.1,3.2c7.1,10.9,18.4,17.1,31.2,17.1c3.9,0,7.7-0.6,11.3-1.7c2.9-0.9,5.5-1.7,7.9-2.4l3.1-0.9
	C241.3,376.2,248.8,374,256,374z M256,325c-67.9,0-123.1-55.2-123.1-123.1S188.1,78.8,256,78.8c67.9,0,123.1,55.2,123.1,123.1
	S323.9,325,256,325z M256,82.9c-65.7,0-119.1,53.4-119.1,119.1c0,65.6,53.4,119,119.1,119s119.1-53.4,119.1-119.1
	C375.1,136.3,321.7,82.9,256,82.9z M255.9,287.8l-0.3,0c-42.3-7.3-71.8-41.4-71.8-82.8v-56.8c0-0.8,0.5-1.5,1.2-1.9l70.1-30.1
	c0.2-0.1,0.5-0.1,0.8-0.1c0.3,0,0.6,0,0.9,0.2l70.2,30.1c0.7,0.3,1.2,1,1.2,1.9v56.8c0,41.4-29.5,75.4-71.8,82.9
	C256.4,287.8,256,287.8,255.9,287.8L255.9,287.8z M187.8,149.5V205c0,38.7,27.6,71.1,67.1,78.7l0.1,0l1,0.1l1.1-0.1l0.1,0
	c39.5-7.6,67.1-39.9,67.1-78.7v-55.5L256,120.2L187.8,149.5z M246.7,235.6c-3.4,0-6.4-1.3-8.9-3.6l-23.3-23.4
	c-2.4-2.4-3.7-5.6-3.7-8.9c0-3.4,1.3-6.4,3.6-8.9c2.3-2.3,5.6-3.7,8.9-3.7c3.4,0,6.5,1.3,8.9,3.7l14.4,14.4l33.1-33.4
	c2.3-2.4,5.5-3.7,8.8-3.7c3.4,0,6.4,1.3,8.9,3.6c4.9,4.8,4.9,12.7,0.1,17.7c-2.6,2.6-5.2,5.3-7.8,7.9c-2.6,2.6-5.2,5.3-7.8,7.9
	l-2.3,2.4c-8.4,8.5-16.3,16.4-24,24.2C253.1,234.3,250.1,235.6,246.7,235.6z M223.4,191.3c-2.2,0-4.4,0.9-6,2.5
	c-1.6,1.6-2.5,3.8-2.5,6c0,2.2,0.9,4.4,2.5,6l23.3,23.3c1.6,1.6,3.8,2.5,6,2.5c2.2,0,4.4-0.9,6-2.5c9-9,18.4-18.5,26-26.2l0.4-0.4
	c2.6-2.7,5.2-5.3,7.8-7.9c2.6-2.6,5.2-5.3,7.8-7.9c3.2-3.4,3.2-8.8,0-12c-1.6-1.6-3.7-2.5-6-2.5c-2.2,0-4.4,0.9-6,2.5l-34.6,34.9
	c-0.4,0.4-0.9,0.6-1.4,0.6c-0.4,0-0.9-0.1-1.3-0.5l-0.1-0.1l-15.9-15.8C228,192.2,225.8,191.3,223.4,191.3z"/>
</svg>
