<?xml version="1.0" encoding="utf-8"?>
<!-- Generator: Adobe Illustrator 26.0.1, SVG Export Plug-In . SVG Version: 6.00 Build 0)  -->
<svg version="1.1" id="Layer_1" xmlns="http://www.w3.org/2000/svg" xmlns:xlink="http://www.w3.org/1999/xlink" x="0px" y="0px"
	 viewBox="0 0 512 512" style="enable-background:new 0 0 512 512;" xml:space="preserve">
<style type="text/css">
	.st0{fill:url(#SVGID_1_);}
	.st1{fill:url(#SVGID_00000149368397678836095020000008353854232215234491_);}
	.st2{fill:url(#SVGID_00000153702926964097048050000000502551848520755887_);}
	.st3{fill:url(#SVGID_00000074421366009699234610000005872860362855586707_);}
	.st4{fill:url(#SVGID_00000101792215405524705670000012497668313802610618_);}
	.st5{fill:#C73E06;}
	.st6{fill:url(#SVGID_00000083798549083185992660000006446554239962025640_);}
	.st7{fill:url(#SVGID_00000142137658522640682670000008010015113269629612_);}
	.st8{fill:url(#SVGID_00000114788820267830819800000017488798559393363635_);}
	.st9{fill:url(#SVGID_00000142154684986708819700000005704860309680386733_);}
	.st10{fill:url(#SVGID_00000080908862719983270900000001723779591449267599_);}
	.st11{fill:url(#SVGID_00000099641155774258921700000008044591651386002089_);}
	.st12{fill:url(#SVGID_00000138545922969125616770000006847904302051902613_);}
	.st13{fill:url(#SVGID_00000087405062915891598990000012401080796591693198_);}
	.st14{fill:url(#SVGID_00000173153699038778021100000000676871002006462911_);}
	.st15{fill:url(#SVGID_00000088099078534880743620000002187295034369004185_);}
	.st16{fill:url(#SVGID_00000000932216163444156730000017681160843940649638_);}
	.st17{fill:url(#SVGID_00000023275956751420405930000008890411637932706696_);}
	.st18{fill:url(#SVGID_00000059277150739415345010000012284373291526400178_);}
	.st19{fill:url(#SVGID_00000050642906854381840270000002137415314073067957_);}
	.st20{fill:url(#SVGID_00000021115663552800065550000013711950924106012587_);}
	.st21{fill:url(#SVGID_00000013191475506803764420000016203328248816432033_);}
	.st22{fill:url(#SVGID_00000139267206822510181730000000776148051357908926_);}
	.st23{fill:url(#SVGID_00000069397136844056508520000015752876985932890768_);}
	.st24{fill:#284268;}
</style>
<radialGradient id="SVGID_1_" cx="237" cy="104" r="307.0651" gradientUnits="userSpaceOnUse">
	<stop  offset="0" style="stop-color:#F7941D"/>
	<stop  offset="0.5028" style="stop-color:#F7921E"/>
	<stop  offset="0.6839" style="stop-color:#F68B1F"/>
	<stop  offset="0.8131" style="stop-color:#F57F22"/>
	<stop  offset="0.9167" style="stop-color:#F36E25"/>
	<stop  offset="1" style="stop-color:#F15A29"/>
</radialGradient>
<path class="st0" d="M280.3,302.3c-4.4-6.3-6.3-14.1-5.3-21.7c0.2-1.3,0.3-2.7,0.3-4c0-6.3-1.9-12.5-5.5-17.7L137.8,67.7
	c-10.1-14.7-30.3-18.5-45-8.3s-18.5,30.3-8.3,45l86.1,124.8L254.8,331c3-11.6,16.1-19.6,31.6-19.8L280.3,302.3z"/>
<radialGradient id="SVGID_00000137831224749735625710000008377380702423262390_" cx="-27" cy="235" r="139.7033" gradientUnits="userSpaceOnUse">
	<stop  offset="0" style="stop-color:#F7941D"/>
	<stop  offset="0.5028" style="stop-color:#F7921E"/>
	<stop  offset="0.6839" style="stop-color:#F68B1F"/>
	<stop  offset="0.8131" style="stop-color:#F57F22"/>
	<stop  offset="0.9167" style="stop-color:#F36E25"/>
	<stop  offset="1" style="stop-color:#F15A29"/>
</radialGradient>
<path style="fill:url(#SVGID_00000137831224749735625710000008377380702423262390_);" d="M200.6,229.2l-86.1-124.8
	c-10.1-14.7-6.5-34.8,8.2-44.9c0,0,0.1,0,0.1-0.1c1.1-0.7,2.2-1.4,3.4-2c-15.8-8.3-35.4-2.2-43.7,13.6c-5.6,10.6-4.8,23.5,2,33.4
	l86.1,124.8L254.8,331c1.9-7.4,8-13.4,16.1-16.8L200.6,229.2z"/>
<radialGradient id="SVGID_00000164479690813829084060000009007661021606463393_" cx="269.11" cy="448.14" r="38.93" gradientUnits="userSpaceOnUse">
	<stop  offset="0" style="stop-color:#F7941D"/>
	<stop  offset="0.5028" style="stop-color:#F7921E"/>
	<stop  offset="0.6839" style="stop-color:#F68B1F"/>
	<stop  offset="0.8131" style="stop-color:#F57F22"/>
	<stop  offset="0.9167" style="stop-color:#F36E25"/>
	<stop  offset="1" style="stop-color:#F15A29"/>
</radialGradient>
<circle style="fill:url(#SVGID_00000164479690813829084060000009007661021606463393_);" cx="269.1" cy="448.1" r="38.9"/>
<radialGradient id="SVGID_00000052076014097799358210000007841599490394187189_" cx="342.84" cy="434.845" r="24.9195" gradientUnits="userSpaceOnUse">
	<stop  offset="0" style="stop-color:#F7941D"/>
	<stop  offset="0.5028" style="stop-color:#F7921E"/>
	<stop  offset="0.6839" style="stop-color:#F68B1F"/>
	<stop  offset="0.8131" style="stop-color:#F57F22"/>
	<stop  offset="0.9167" style="stop-color:#F36E25"/>
	<stop  offset="1" style="stop-color:#F15A29"/>
</radialGradient>
<path style="fill:url(#SVGID_00000052076014097799358210000007841599490394187189_);" d="M315.8,412.3l54.1,29.3l-23,15.8
	L315.8,412.3z"/>
<radialGradient id="SVGID_00000159430716484613901990000010646635268088738732_" cx="366.05" cy="461.6039" r="24.4594" gradientUnits="userSpaceOnUse">
	<stop  offset="0" style="stop-color:#F7941D"/>
	<stop  offset="0.5028" style="stop-color:#F7921E"/>
	<stop  offset="0.6839" style="stop-color:#F68B1F"/>
	<stop  offset="0.8131" style="stop-color:#F57F22"/>
	<stop  offset="0.9167" style="stop-color:#F36E25"/>
	<stop  offset="1" style="stop-color:#F15A29"/>
</radialGradient>
<path style="fill:url(#SVGID_00000159430716484613901990000010646635268088738732_);" d="M369.9,441.6l24.4,13.2
	c-1.4,4.9-4.5,9.2-8.7,12.1l-15.8,10.9c-10,6.9-23.7,4.4-30.6-5.6c-0.9-1.3-1.4-2.8-1.4-4.4c0-2.5,1.2-4.9,3.4-6.4l5.7-4
	L369.9,441.6z"/>
<path class="st5" d="M358.6,265.7L358.6,265.7l-23.6,51l-13.3,0.9l-17.6-3.8l27.9-60.4C340,259.2,349.1,263.3,358.6,265.7
	L358.6,265.7z"/>
<radialGradient id="SVGID_00000143601231557756191920000004351356208629580965_" cx="73.9412" cy="352.0588" r="196.2112" gradientUnits="userSpaceOnUse">
	<stop  offset="0" style="stop-color:#F7941D"/>
	<stop  offset="0.5028" style="stop-color:#F7921E"/>
	<stop  offset="0.6839" style="stop-color:#F68B1F"/>
	<stop  offset="0.8131" style="stop-color:#F57F22"/>
	<stop  offset="0.9167" style="stop-color:#F36E25"/>
	<stop  offset="1" style="stop-color:#F15A29"/>
</radialGradient>
<path style="fill:url(#SVGID_00000143601231557756191920000004351356208629580965_);" d="M297.3,312.4l-18.8,87.7l-0.4-0.1
	c-3.6-0.8-21,0.1-29.3-14.1c6.2-17.6,8.2-36.4,6-54.9c3-11.6,16.1-19.6,31.6-19.8c3.5,0,7,0.3,10.5,1L297.3,312.4z"/>
<radialGradient id="SVGID_00000170267415732113410540000012735937964626637737_" cx="73.9412" cy="352.0588" r="196.2112" gradientUnits="userSpaceOnUse">
	<stop  offset="0" style="stop-color:#F7941D"/>
	<stop  offset="0.5028" style="stop-color:#F7921E"/>
	<stop  offset="0.6839" style="stop-color:#F68B1F"/>
	<stop  offset="0.8131" style="stop-color:#F57F22"/>
	<stop  offset="0.9167" style="stop-color:#F36E25"/>
	<stop  offset="1" style="stop-color:#F15A29"/>
</radialGradient>
<path style="fill:url(#SVGID_00000170267415732113410540000012735937964626637737_);" d="M321.8,317.6l-7.2,33.4l-4.8,22.2
	l-6.9,32.1l-24.4-5.2l18.8-87.7l6.8,1.5L321.8,317.6z"/>
<radialGradient id="SVGID_00000068640741740990870530000004616842397294078647_" cx="649.9412" cy="391.5882" r="499.5863" gradientUnits="userSpaceOnUse">
	<stop  offset="0" style="stop-color:#F7941D"/>
	<stop  offset="0.5028" style="stop-color:#F7921E"/>
	<stop  offset="0.6839" style="stop-color:#F68B1F"/>
	<stop  offset="0.8131" style="stop-color:#F57F22"/>
	<stop  offset="0.9167" style="stop-color:#F36E25"/>
	<stop  offset="1" style="stop-color:#F15A29"/>
</radialGradient>
<path style="fill:url(#SVGID_00000068640741740990870530000004616842397294078647_);" d="M452.9,450.3c1.3,1.8,0.9,4.4-1,5.6
	c-0.4,0.3-0.8,0.5-1.3,0.6l-26.1,7c-6,1.6-12.4,0.9-17.9-2.1l-12.4-6.7l-24.4-13.2l-54.1-29.3v0l-12.8-7l6.9-32.1l113.5,41.1
	c3.7,1.3,6.9,3.8,9.1,7L452.9,450.3z"/>
<radialGradient id="SVGID_00000067218773048720337900000000994174678143928706_" cx="649.9412" cy="391.5882" r="499.5729" gradientUnits="userSpaceOnUse">
	<stop  offset="0" style="stop-color:#F7941D"/>
	<stop  offset="0.5028" style="stop-color:#F7921E"/>
	<stop  offset="0.6839" style="stop-color:#F68B1F"/>
	<stop  offset="0.8131" style="stop-color:#F57F22"/>
	<stop  offset="0.9167" style="stop-color:#F36E25"/>
	<stop  offset="1" style="stop-color:#F15A29"/>
</radialGradient>
<path style="fill:url(#SVGID_00000067218773048720337900000000994174678143928706_);" d="M473.8,390.9c1.7,1.5,1.8,4.1,0.3,5.7
	c-0.4,0.4-0.8,0.8-1.4,1l-45,19c-1.4-1-2.8-1.7-4.4-2.3l-113.5-41.1l4.8-22.2l120.1,8.8c2.2,0.2,4.4-0.1,6.6-0.7L473.8,390.9z"/>
<radialGradient id="SVGID_00000149383464629702756730000001612542444839829926_" cx="649.9412" cy="391.5882" r="499.5863" gradientUnits="userSpaceOnUse">
	<stop  offset="0" style="stop-color:#F7941D"/>
	<stop  offset="0.5028" style="stop-color:#F7921E"/>
	<stop  offset="0.6839" style="stop-color:#F68B1F"/>
	<stop  offset="0.8131" style="stop-color:#F57F22"/>
	<stop  offset="0.9167" style="stop-color:#F36E25"/>
	<stop  offset="1" style="stop-color:#F15A29"/>
</radialGradient>
<path style="fill:url(#SVGID_00000149383464629702756730000001612542444839829926_);" d="M477.5,330.5c1.8,1.3,2.2,3.9,0.8,5.7
	c-0.3,0.4-0.7,0.7-1.1,1l-30.9,19.7c-1.6,1-3.3,1.8-5.1,2.3c-2.1,0.6-4.4,0.8-6.6,0.7L314.6,351l7.2-33.4l13.3-0.9l104.8-6.8
	c5.8-0.4,11.6,1.2,16.3,4.7L477.5,330.5z"/>
<radialGradient id="SVGID_00000155824945026249804540000012912257366382607529_" cx="382.0588" cy="124.7647" r="150.2522" gradientUnits="userSpaceOnUse">
	<stop  offset="0" style="stop-color:#F7941D"/>
	<stop  offset="0.5028" style="stop-color:#F7921E"/>
	<stop  offset="0.6839" style="stop-color:#F68B1F"/>
	<stop  offset="0.8131" style="stop-color:#F57F22"/>
	<stop  offset="0.9167" style="stop-color:#F36E25"/>
	<stop  offset="1" style="stop-color:#F15A29"/>
</radialGradient>
<path style="fill:url(#SVGID_00000155824945026249804540000012912257366382607529_);" d="M476.3,142c1.8-12.7,1.3-25.7-1.6-38.3
	c-1.4-6.1-3.6-12-6.4-17.7c-6.5-13-16.4-23.4-29.4-29.3c0,0,0,0,0,0c-13-6-27.3-6.8-41.5-3.2c-6.1,1.5-12,3.8-17.5,6.6h0
	c-11.4,6-21.7,14-30.2,23.6c-7.7,8.6-14.2,18.3-19.2,28.7c-0.4,0.8-0.8,1.7-1.2,2.6c-4.4,9.6-7.7,19.7-9.6,30.1
	c-2.4,12.3-2.6,24.8-0.7,37.1c1.3,8.5,3.9,16.8,7.7,24.5c6.5,13,16.4,23.4,29.4,29.4c0,0,0,0,0,0c13,6,27.3,6.8,41.5,3.3v0
	c8.4-2.1,16.4-5.5,23.7-10.1h0c10.6-6.6,20.1-14.9,27.9-24.7c6.6-8.2,12.2-17.2,16.6-26.8c0.4-0.9,0.8-1.7,1.1-2.6
	C471.6,164.7,474.8,153.5,476.3,142L476.3,142z M450.4,32.1c49.1,22.6,65.3,92.1,36.1,155.3c-26.5,57.4-81.2,89.8-127.9,78.3v0
	c-9.6-2.3-18.6-6.5-26.6-12.2c-39-27.9-49.9-90.6-23.4-147.9C337.8,42.4,401.3,9.5,450.4,32.1z"/>
<radialGradient id="SVGID_00000124880034248681734010000012946032215148571814_" cx="-215.1176" cy="631.9412" r="425.834" gradientUnits="userSpaceOnUse">
	<stop  offset="0" style="stop-color:#F7941D"/>
	<stop  offset="0.5028" style="stop-color:#F7921E"/>
	<stop  offset="0.6839" style="stop-color:#F68B1F"/>
	<stop  offset="0.8131" style="stop-color:#F57F22"/>
	<stop  offset="0.9167" style="stop-color:#F36E25"/>
	<stop  offset="1" style="stop-color:#F15A29"/>
</radialGradient>
<path style="fill:url(#SVGID_00000124880034248681734010000012946032215148571814_);" d="M95.8,383l-48.9,48.8
	c-19.5-19.4-31.8-44.7-35-72C41.9,352.3,73.8,361.1,95.8,383z"/>
<radialGradient id="SVGID_00000075157885192640040420000000039783018192577683_" cx="-215.1176" cy="631.9412" r="425.834" gradientUnits="userSpaceOnUse">
	<stop  offset="0" style="stop-color:#F7941D"/>
	<stop  offset="0.5028" style="stop-color:#F7921E"/>
	<stop  offset="0.6839" style="stop-color:#F68B1F"/>
	<stop  offset="0.8131" style="stop-color:#F57F22"/>
	<stop  offset="0.9167" style="stop-color:#F36E25"/>
	<stop  offset="1" style="stop-color:#F15A29"/>
</radialGradient>
<path style="fill:url(#SVGID_00000075157885192640040420000000039783018192577683_);" d="M95.8,383c22,21.9,30.8,53.7,23.2,83.8
	c-27.3-3.2-52.7-15.5-72.1-34.9L95.8,383z"/>
<radialGradient id="SVGID_00000009558115112572114980000007741767879723758522_" cx="-5.4706" cy="211.5882" r="308.2341" gradientUnits="userSpaceOnUse">
	<stop  offset="0" style="stop-color:#F7941D"/>
	<stop  offset="0.5028" style="stop-color:#F7921E"/>
	<stop  offset="0.6839" style="stop-color:#F68B1F"/>
	<stop  offset="0.8131" style="stop-color:#F57F22"/>
	<stop  offset="0.9167" style="stop-color:#F36E25"/>
	<stop  offset="1" style="stop-color:#F15A29"/>
</radialGradient>
<path style="fill:url(#SVGID_00000009558115112572114980000007741767879723758522_);" d="M133.3,345.5l86.5,86.3
	c-26.5,26.5-63.6,39.3-100.8,34.9c7.6-30.1-1.3-61.9-23.2-83.8L133.3,345.5z"/>
<radialGradient id="SVGID_00000005236837096736210940000003448950872490501260_" cx="72.1486" cy="321.07" r="61.5368" gradientUnits="userSpaceOnUse">
	<stop  offset="0" style="stop-color:#F7941D"/>
	<stop  offset="0.5028" style="stop-color:#F7921E"/>
	<stop  offset="0.6839" style="stop-color:#F68B1F"/>
	<stop  offset="0.8131" style="stop-color:#F57F22"/>
	<stop  offset="0.9167" style="stop-color:#F36E25"/>
	<stop  offset="1" style="stop-color:#F15A29"/>
</radialGradient>
<path style="fill:url(#SVGID_00000005236837096736210940000003448950872490501260_);" d="M133.3,345.5L95.8,383
	c-22-21.9-53.8-30.7-83.9-23.2c-4.4-37.1,8.5-74.3,35-100.6L133.3,345.5z"/>
<radialGradient id="SVGID_00000174578147913794714220000014662944618331417274_" cx="-78.5294" cy="227.4706" r="373.337" gradientUnits="userSpaceOnUse">
	<stop  offset="0" style="stop-color:#F7941D"/>
	<stop  offset="0.5028" style="stop-color:#F7921E"/>
	<stop  offset="0.6839" style="stop-color:#F68B1F"/>
	<stop  offset="0.8131" style="stop-color:#F57F22"/>
	<stop  offset="0.9167" style="stop-color:#F36E25"/>
	<stop  offset="1" style="stop-color:#F15A29"/>
</radialGradient>
<path style="fill:url(#SVGID_00000174578147913794714220000014662944618331417274_);" d="M254.8,331c4.5,37.2-8.4,74.4-35,100.8
	l-86.5-86.3l37.7-37.6C192.9,329.7,224.7,338.5,254.8,331C254.8,331,254.8,331,254.8,331z"/>
<radialGradient id="SVGID_00000083073661503225238280000006995357017774053537_" cx="108.925" cy="284.435" r="61.5822" gradientUnits="userSpaceOnUse">
	<stop  offset="0" style="stop-color:#F7941D"/>
	<stop  offset="0.5028" style="stop-color:#F7921E"/>
	<stop  offset="0.6839" style="stop-color:#F68B1F"/>
	<stop  offset="0.8131" style="stop-color:#F57F22"/>
	<stop  offset="0.9167" style="stop-color:#F36E25"/>
	<stop  offset="1" style="stop-color:#F15A29"/>
</radialGradient>
<path style="fill:url(#SVGID_00000083073661503225238280000006995357017774053537_);" d="M171,307.8l-37.7,37.6l-86.5-86.3
	c26.5-26.5,63.7-39.4,100.9-34.9v0C140.3,254.3,149.1,286,171,307.8L171,307.8z"/>
<radialGradient id="SVGID_00000039847223991895995460000013601252733369107882_" cx="99.3529" cy="140.6471" r="481.6937" gradientUnits="userSpaceOnUse">
	<stop  offset="0" style="stop-color:#F7941D"/>
	<stop  offset="0.5028" style="stop-color:#F7921E"/>
	<stop  offset="0.6839" style="stop-color:#F68B1F"/>
	<stop  offset="0.8131" style="stop-color:#F57F22"/>
	<stop  offset="0.9167" style="stop-color:#F36E25"/>
	<stop  offset="1" style="stop-color:#F15A29"/>
</radialGradient>
<path style="fill:url(#SVGID_00000039847223991895995460000013601252733369107882_);" d="M219.8,259.2L171,307.8
	c-21.9-21.8-30.7-53.6-23.3-83.6v0C175,227.5,200.4,239.8,219.8,259.2L219.8,259.2z"/>
<radialGradient id="SVGID_00000049186695004842145570000007031020735489247117_" cx="241.2353" cy="212.6471" r="248.1468" gradientUnits="userSpaceOnUse">
	<stop  offset="0" style="stop-color:#F7941D"/>
	<stop  offset="0.5028" style="stop-color:#F7921E"/>
	<stop  offset="0.6839" style="stop-color:#F68B1F"/>
	<stop  offset="0.8131" style="stop-color:#F57F22"/>
	<stop  offset="0.9167" style="stop-color:#F36E25"/>
	<stop  offset="1" style="stop-color:#F15A29"/>
</radialGradient>
<path style="fill:url(#SVGID_00000049186695004842145570000007031020735489247117_);" d="M254.8,331C254.8,331,254.8,331,254.8,331
	c-30.1,7.5-61.8-1.3-83.7-23.2l48.8-48.7C239.2,278.5,251.5,303.8,254.8,331z"/>
<radialGradient id="SVGID_00000112612771368005292280000001765348371224378758_" cx="301.9412" cy="340.0588" r="311.5253" gradientUnits="userSpaceOnUse">
	<stop  offset="0" style="stop-color:#F7941D"/>
	<stop  offset="0.5028" style="stop-color:#F7921E"/>
	<stop  offset="0.6839" style="stop-color:#F68B1F"/>
	<stop  offset="0.8131" style="stop-color:#F57F22"/>
	<stop  offset="0.9167" style="stop-color:#F36E25"/>
	<stop  offset="1" style="stop-color:#F15A29"/>
</radialGradient>
<path style="fill:url(#SVGID_00000112612771368005292280000001765348371224378758_);" d="M41.7,357.6c-10-0.9-20.1-0.2-29.8,2.2
	c3.2,27.3,15.5,52.7,35,72l16.3-16.3c-11.6-16.5-18.9-35.7-21.2-55.7C41.8,359.1,41.7,358.3,41.7,357.6z"/>
<radialGradient id="SVGID_00000013179278034577003060000001140912298515237016_" cx="301.9412" cy="340.0588" r="311.5253" gradientUnits="userSpaceOnUse">
	<stop  offset="0" style="stop-color:#F7941D"/>
	<stop  offset="0.5028" style="stop-color:#F7921E"/>
	<stop  offset="0.6839" style="stop-color:#F68B1F"/>
	<stop  offset="0.8131" style="stop-color:#F57F22"/>
	<stop  offset="0.9167" style="stop-color:#F36E25"/>
	<stop  offset="1" style="stop-color:#F15A29"/>
</radialGradient>
<path style="fill:url(#SVGID_00000013179278034577003060000001140912298515237016_);" d="M147.9,224.4c0-0.1,0.1-0.1,0.1-0.1v0
	c-37.3-4.5-74.5,8.4-101.1,34.9l16.3,16.3c4.1-5.8,8.7-11.3,13.8-16.3C96.1,240.1,121,227.8,147.9,224.4L147.9,224.4z"/>
<radialGradient id="SVGID_00000023963189704876498880000006278228230094727604_" cx="301.9412" cy="340.0588" r="311.5253" gradientUnits="userSpaceOnUse">
	<stop  offset="0" style="stop-color:#F7941D"/>
	<stop  offset="0.5028" style="stop-color:#F7921E"/>
	<stop  offset="0.6839" style="stop-color:#F68B1F"/>
	<stop  offset="0.8131" style="stop-color:#F57F22"/>
	<stop  offset="0.9167" style="stop-color:#F36E25"/>
	<stop  offset="1" style="stop-color:#F15A29"/>
</radialGradient>
<path style="fill:url(#SVGID_00000023963189704876498880000006278228230094727604_);" d="M63.1,415.5l-16.3,16.3
	c19.4,19.4,44.8,31.7,72.1,34.9c0.6-2.3,1-4.6,1.4-6.9C97.3,451.2,77.3,435.7,63.1,415.5L63.1,415.5z"/>
<radialGradient id="SVGID_00000054964263802532927820000006369128395712033452_" cx="301.9412" cy="340.0588" r="311.5253" gradientUnits="userSpaceOnUse">
	<stop  offset="0" style="stop-color:#F7941D"/>
	<stop  offset="0.5028" style="stop-color:#F7921E"/>
	<stop  offset="0.6839" style="stop-color:#F68B1F"/>
	<stop  offset="0.8131" style="stop-color:#F57F22"/>
	<stop  offset="0.9167" style="stop-color:#F36E25"/>
	<stop  offset="1" style="stop-color:#F15A29"/>
</radialGradient>
<path style="fill:url(#SVGID_00000054964263802532927820000006369128395712033452_);" d="M63.2,275.5l-16.4-16.3
	c-26.5,26.4-39.4,63.5-35,100.6c9.7-2.4,19.8-3.2,29.8-2.2C38.8,328.5,46.4,299.4,63.2,275.5L63.2,275.5z"/>
<g>
	<path class="st24" d="M441.5,51.3c-40.6-18.7-93.4,8.8-117.6,61.2c-13.7,29.7-16,61.9-6.2,88.4c7,19,19.4,33,36,40.6
		c8.5,3.9,17.8,5.9,27.2,5.9c34.6,0,71.3-25.8,90.4-67.1c13.7-29.7,16-61.9,6.2-88.4C470.4,72.9,458,58.9,441.5,51.3L441.5,51.3z
		 M441.8,65c8.4,5.2,15.3,12.5,20,21.2l-1.9,4L435.3,79L441.8,65z M357,155.6l9.3-20.1l24.5,11.3l-9.3,20.1L357,155.6z M376.5,177.8
		l-9.3,20.1l-24.5-11.3l9.3-20.1L376.5,177.8z M371.3,124.6l9.3-20.1l24.5,11.3l-9.3,20.1L371.3,124.6z M401.7,151.8l24.5,11.3
		l-9.3,20.1l-24.5-11.3L401.7,151.8z M406.7,140.9l9.3-20.1l24.5,11.3l-9.3,20.1L406.7,140.9z M421,110l9.3-20.1l24.5,11.3
		l-9.3,20.1L421,110z M401.7,58.7c4.1-0.8,8.2-1.3,12.4-1.3c5.7,0,11.4,0.9,16.8,2.6l-6.4,14l-24.6-11.3L401.7,58.7z M394.8,73.6
		l24.5,11.3l-9.3,20.1l-24.5-11.3L394.8,73.6z M380.1,66.8l3.8,1.8l-9.3,20.1l-14.7-6.8C366,76,372.8,70.9,380.1,66.8z M351.3,91.1
		l18.3,8.4l-9.3,20.1l-21.6-9.9C342.4,103.1,346.6,96.9,351.3,91.1L351.3,91.1z M333.5,120.4l21.8,10.1l-9.3,20.1l-19.5-9
		C328.2,134.3,330.5,127.3,333.5,120.4z M324.4,178.1c-1-8.1-1-16.3,0-24.3l16.6,7.7l-9.3,20.1L324.4,178.1z M353.3,227.9
		c-8.4-5.2-15.3-12.5-19.9-21.3l4.2-9.2l24.5,11.3L353.3,227.9z M393.4,234.2c-9.7,2.1-19.7,1.6-29.1-1.4l8.8-19.1l24.5,11.3
		L393.4,234.2z M402.7,214.1l-24.5-11.3l9.3-20.1l24.5,11.3L402.7,214.1z M420.9,222.5l-7.3-3.4l9.3-20.1l16.6,7.6
		C433.9,212.7,427.7,218,420.9,222.5L420.9,222.5z M447.4,197.2l-19.5-9l9.3-20.1l21.9,10.1C455.7,184.9,451.8,191.2,447.4,197.2
		L447.4,197.2z M463.8,167.2l-21.6-9.9l9.3-20.1l18.3,8.4C468.4,153,466.4,160.2,463.8,167.2L463.8,167.2z M471.3,133.1l-14.8-6.8
		l9.3-20.1l3.9,1.8C471.2,116.2,471.8,124.7,471.3,133.1L471.3,133.1z"/>
	<path class="st24" d="M452.9,26.6c-52-23.9-119.2,10.3-149.7,76.4c-17.1,37-19.8,77.4-7.5,110.8c6.3,17.2,16.2,31.2,28.9,41.5
		l-23.8,51.6l-2.6-0.6c-2.8-0.6-5.7-1-8.6-1.1l-4.4-6.3c-3.5-5.1-5.1-11.4-4.3-17.6c1.2-9.1-1.1-18.3-6.3-25.9L142.8,64.3
		c-12.1-17.4-35.9-21.8-53.4-9.8c-17.4,12-21.9,35.8-9.9,53.3c0,0,0,0,0,0.1l77.1,111.8c-69.5-12.8-136.3,33.2-149,102.8
		s33.2,136.3,102.8,149c41.4,7.6,83.8-5.6,113.6-35.3c0.9-0.9,1.8-1.8,2.7-2.8c-8.2,23.4,4.1,49.1,27.5,57.3s49.1-4.1,57.3-27.5
		c7.2-20.6-1.4-43.3-20.4-54l9.7,2l10.8,5.9l26.9,39l-0.8,0.5c-6.2,4.3-7.8,12.8-3.5,19.1c0,0,0,0,0,0c8.8,12.7,26.2,15.9,38.9,7.2
		l15.8-10.9c3.3-2.3,6.1-5.2,8.1-8.7l6.7,3.6c6.8,3.7,14.8,4.6,22.3,2.6l26.1-7c5.4-1.4,8.6-7,7.1-12.3c-0.3-1.1-0.8-2.2-1.5-3.2
		L438,418.8l37-15.6c0,0,0.1,0,0.1-0.1c5.1-2.3,7.3-8.2,5.1-13.3c-0.6-1.2-1.3-2.3-2.3-3.3l-26.4-25.8l29-18.5
		c4.7-3,6.1-9.2,3.1-13.9c-0.7-1-1.5-1.9-2.5-2.7l-21.4-15.8c-5.8-4.3-13-6.4-20.2-5.9l-94.7,6.1l17.3-37.5
		c5.1,0.9,10.3,1.4,15.5,1.4c44,0,90.4-32.3,114.3-84c17.1-37,19.8-77.4,7.5-110.8C490.4,54.6,474.3,36.5,452.9,26.6L452.9,26.6z
		 M290.1,317.3l-16.3,76.2c-5.5-0.6-13.3-2.1-18.4-8.5c4.1-12.8,6.2-26.1,6.2-39.5c0-4.7-0.3-9.3-0.8-13.9
		C264,322.2,276.5,316.3,290.1,317.3L290.1,317.3z M263.1,403.6c-7.1,1-13.8,3.6-19.7,7.7c2.7-4.5,5.2-9.2,7.3-14
		C254.4,400.2,258.6,402.4,263.1,403.6z M152.4,231c7.4,1.2,14.6,3.1,21.6,5.7c2.6,1,5.6,0,7.2-2.4v0c1.8-2.8,1-6.5-1.8-8.3
		c-0.4-0.2-0.7-0.4-1.1-0.6c-1.3-0.5-2.6-0.9-3.9-1.4L89.4,101c-8.2-12-5.2-28.3,6.7-36.6c0,0,0,0,0,0c12-8.2,28.4-5.2,36.7,6.7
		l131.9,191.1c3.5,5.1,5.1,11.4,4.3,17.6c-1.2,9.1,1.1,18.3,6.3,25.9l0.5,0.7c-6.6,1.4-12.7,4.4-17.8,8.8
		c-5.5-22.9-17.3-43.7-34-60.3c-2.5-2.5-5-4.8-7.7-7.1c-2.5-2.2-6.3-2-8.5,0.5c-2.2,2.5-2,6.3,0.5,8.5c0.1,0.1,0.2,0.1,0.3,0.2
		c0.9,0.7,1.7,1.5,2.6,2.3l-40,39.9C154.9,280.5,148,255.4,152.4,231z M248,326.4c-24.4,4.5-49.6-2.4-68.4-18.7l40-39.9
		C234.6,284.1,244.4,304.5,248,326.4L248,326.4z M133.3,229.5c2.4,0,4.8,0.1,7.2,0.2c-4.9,28,3.2,56.8,22.2,78L133.3,337l-77.9-77.7
		C76.8,240,104.5,229.4,133.3,229.5L133.3,229.5z M17,345.5c-0.1-28.7,10.6-56.5,29.9-77.7l77.9,77.7l-29.2,29.1
		c-21.5-18.7-50.3-26.8-78.4-22.1C17.1,350.2,17,347.9,17,345.5z M18.5,364.5c24.5-4.6,49.7,2.3,68.6,18.6l-40.2,40.1
		C32,406.8,22.1,386.4,18.5,364.5L18.5,364.5z M114.3,460c-21.9-3.6-42.4-13.4-58.9-28.3l40.2-40.1C112,410.3,118.9,435.5,114.3,460
		L114.3,460z M126.2,461.3c4.8-28.1-3.4-56.8-22.1-78.2l29.2-29.1l77.9,77.7C188,452.6,157.4,463.2,126.2,461.3L126.2,461.3z
		 M219.7,423.2l-77.9-77.7l29.4-29.3c17.1,15.2,39.1,23.5,62,23.5c5.4,0,10.9-0.5,16.2-1.4c0.1,2.4,0.2,4.8,0.2,7.2
		C249.7,374.2,239,402,219.7,423.2L219.7,423.2z M302,448.1c0,18.2-14.7,32.9-32.9,32.9s-32.9-14.7-32.9-32.9
		c0-18.2,14.7-32.9,32.9-32.9C287.3,415.2,302,430,302,448.1L302,448.1z M298.3,398.2l-12.7-2.7l16.3-76l12.7,2.7L298.3,398.2z
		 M334.9,429.5l23.5,12.7l-10,6.9L334.9,429.5z M382.2,461.9l-15.8,10.9c-7.3,5-17.2,3.2-22.3-4.1c-0.5-0.8-0.3-1.9,0.4-2.4
		c0,0,0,0,0,0l25.7-17.7l16.3,8.8C385.4,459.2,383.9,460.7,382.2,461.9L382.2,461.9z M446.4,451.5l-23.4,6.3
		c-4.5,1.2-9.3,0.7-13.5-1.6l-99.8-54.1l4.5-21l107,38.8c2.5,0.9,4.7,2.6,6.3,4.8L446.4,451.5z M467.6,393.3l-39.5,16.7l-111.4-40.6
		l2.6-12l116.7,8.5c1.1,0,2.2-0.1,3.3-0.2L467.6,393.3z M440.3,315.9c4.4-0.3,8.7,0.9,12.2,3.5l19.1,14.2l-28.5,18.2
		c-2.4,1.5-5.2,2.2-8.1,2l-113.2-8.3l4.8-22.2L440.3,315.9z M331.1,311l-8.9,0.6l-9.4-2l21.8-47.2c2.5,1.5,5,2.8,7.7,4
		c2.6,1.2,5.3,2.3,8,3.2L331.1,311z M481,184.8c-27.7,60.1-87.8,91.7-133.8,70.5c-18.5-8.5-32.4-24.3-40.3-45.7
		c-11.2-30.4-8.6-67.5,7.1-101.6C336,60.6,378,30.9,417.3,30.9c10.5,0,20.9,2.2,30.5,6.6c18.5,8.5,32.4,24.3,40.3,45.7
		C499.4,113.7,496.8,150.7,481,184.8z"/>
	<path class="st24" d="M108.2,85.3l-1.1-1.7c-1.8-2.8-5.5-3.6-8.3-1.8s-3.6,5.5-1.8,8.3c0,0,0.1,0.1,0.1,0.1l1.1,1.7
		c1.8,2.8,5.5,3.6,8.3,1.7C109.3,91.9,110.1,88.2,108.2,85.3C108.3,85.4,108.2,85.3,108.2,85.3z"/>
	<path class="st24" d="M118.4,100.5c-1.9-2.7-5.6-3.4-8.3-1.6c-2.7,1.8-3.4,5.5-1.7,8.2l42.8,64.2c1.8,2.8,5.5,3.6,8.3,1.8
		s3.6-5.5,1.8-8.3c0,0-0.1-0.1-0.1-0.1L118.4,100.5z"/>
</g>
</svg>
