<?xml version="1.0" encoding="utf-8"?>
<!-- Generator: Adobe Illustrator 26.0.1, SVG Export Plug-In . SVG Version: 6.00 Build 0)  -->
<svg version="1.1" id="Capa_1" xmlns="http://www.w3.org/2000/svg" xmlns:xlink="http://www.w3.org/1999/xlink" x="0px" y="0px"
	 viewBox="0 0 512 512" style="enable-background:new 0 0 512 512;" xml:space="preserve">
<style type="text/css">
	.st0{fill:#7AD6FF;}
	.st1{fill:#7CA64F;}
</style>
<path class="st0" d="M379,469c-117.6,67.9-268,27.6-336-90S15.4,111,133,43s268-27.6,336,90S496.6,401.1,379,469z"/>
<g>
	<path class="st1" d="M273.4,182.5c-1.8,0.4-5.2,1.3-6.7,2.5c-1.9,1.5,1,3.4,0,4.3c-1.8,1.5-3.1,4.1-7.1,3.9
		c-8.2-0.5-20.7-11.1-28.2-15.1c12-12.4-7-14.2-14.4-13.6c-9.6,0.8-26.2-0.1-34.9,4.8c-6,3.4-14.1,17.5-19,23
		c-6.8,7.8-13.5,14.5-17.9,23.8c-16.1,34.2,8.7,73.4,47.7,68.8c10.8-1.3,22.2-8.1,31.8,0.9c7.1,6.6,3.3,12.9,5.2,20.6
		c1.6,6.7,9,10.8,11.6,16.9c4.9,11.8,1.8,19.1-1.7,30c-4.6,14.2,7.3,31.2,11.9,44.9c2.3,6.9,9.1,26.3,15.8,29.3
		c10.5,4.8,26.9-9.5,33.2-17.2c4.9-6,3.3-12.1,6.6-17.8c3.6-6.1,8.1-7.9,10.6-15.8c2.7-8.5,5.5-10.6,11.2-16.8
		c9.1-9.9,7.7-15.8,4.1-27.6c-7.6-24.5,20-36,32.4-54c13-18.8-12.1-12.5-21.9-18.9c-10.1-6.6-14.5-19.2-19.4-29.6
		c-4.9-10.4-8.9-26.1-17-34.6C301.1,188.8,282.2,185.7,273.4,182.5z"/>
	<path class="st1" d="M400.4,346.8c-3.9,13.2-7.8,26.4-11.8,39.6c-2.7,9.2-12.5,42.1-26,20.1c-5.2-7.4-1-17,1.9-23.8
		c3.6-8.5-1.3-12.8,1.3-20.9c2.9-9.3,14.9-9.6,20.5-16.1c3.9-4.5,6.4-11.8,9.3-17.1C397.1,334.8,398.8,340.8,400.4,346.8z"/>
	<path class="st1" d="M469,133.1C426.7,59.7,352.2,16.4,273.6,10.7L241.4,51l-68.9,24.2L154,120l28.5,40l3-8.4
		c5.1-14.1,18.4-23.5,33.4-23.5h47l54,19l18.6,17.8v11.3l25.9,49.6l7.5-2.8c16.3-6,31-15.5,43.3-27.7l-6.2-9.4c-2-3,0.1-7,3.7-7H428
		c4.4,0,8.6,1.9,11.5,5.3l12.3,14.4c1.2,1.4,2.1,2.9,2.7,4.6l13.6,37.4l6.5-6.5c4.1-4.1,6.1-9.6,6.2-15.4c3.2-1.7,17.4,2.4,14-4.4
		l1.3-11.1c1.2-1.1-2.1-3.1-0.6-3.8C490,176.7,481.3,154.4,469,133.1z"/>
	<path class="st1" d="M101.1,142.7l11.8-12.6c8.6-9.2,11-22.5,6.2-34.2l0,0C114,83.6,102.9,75.7,90.6,74
		c-43.4,39.4-70.4,92.4-78.2,148.5c9.2,8,18.8,16.6,18.7,17.4c-0.1,1.4,34.4-4.3,34.4-4.3l-17.8-26.1l25.5-18.2L101.1,142.7z"/>
	<path class="st1" d="M125,387.7c11.1-3.6,17.2-15.5,13.6-26.6l-3.2-9.7c-1.4-4.3-1.4-8.8,0-13.1l0,0c4-12.1-3.6-24.9-16-27.3
		l-24.9-4.9l-45.4-34.5l-37.5,12.2c3.7,32.6,14,65,31.4,95.2c16.1,28,36.9,51.5,60.8,70.3l11.2-58.4L125,387.7z"/>
</g>
<path d="M376.4,464.7l-0.2,0.1c-2.4,1.4-3.3,4.5-1.9,7c0.9,1.6,2.7,2.5,4.4,2.5c0.9,0,1.8-0.2,2.6-0.7l0.2-0.1
	c2.4-1.4,3.3-4.5,1.9-7C381.9,464.1,378.8,463.3,376.4,464.7z"/>
<path d="M268.1,122.7c-3-1-6.2,0.5-7.3,3.5c-1,3,0.5,6.2,3.5,7.3l0.4,0.1c0.6,0.2,1.3,0.3,1.9,0.3c2.4,0,4.6-1.5,5.4-3.8
	c1-3-0.5-6.2-3.5-7.3L268.1,122.7z"/>
<path d="M471.6,131.6c-33.2-57.6-86.9-98.8-151.2-116c-21.2-5.7-43-8.6-64.8-8.6c-43.2,0-86.1,11.6-124.1,33.5
	C74,73.7,32.8,127.4,15.6,191.6S7.2,322.9,40.5,380.5C70.3,432.2,117.7,471.4,174,491c26.5,9.3,54.2,13.9,82.3,13.9
	c30.6,0,60.5-5.5,88.9-16.4c0.8-0.3,1.3-0.8,1.7-1.6c0.3-0.7,0.3-1.5,0.1-2.3c-0.4-1.2-1.6-1.9-2.8-1.9c-0.4,0-0.7,0.1-1.1,0.2
	c-28.2,10.9-57.7,16.4-87.6,16.4c-51.8,0-103.2-17.2-144.7-48.3l-3.5-2.6l10.6-55.1l8.3-2.7c12.6-4.1,19.6-17.7,15.5-30.4l-3.2-9.7
	c-1.2-3.7-1.2-7.6,0-11.2c2.2-6.6,1.4-13.8-2.1-19.7c-3.5-6-9.4-10.1-16.2-11.5L96,303.4l-45-34.2c-0.5-0.4-1.2-0.6-1.8-0.6
	c-0.3,0-0.6,0-0.9,0.1l-34.1,11.1l-0.5-9c-0.6-9.3-0.6-18.8,0-28.1l0.8-14.9c0,0,8.4,7.8,10.2,9.5L28,237l0.2,3c0,0.1,0,0.3,0.1,0.4
	l0.1,0.6l0.3,0.5c0.2,0.3,0.3,0.5,0.6,0.7c0.8,0.7,1,0.9,3.2,0.9c3.1,0,7.9-0.6,16.9-2c7.9-1.2,15.9-2.5,16.8-2.6
	c1-0.2,1.9-0.8,2.3-1.8c0.4-0.9,0.3-2-0.3-2.9l-16.1-23.6L75,193.7c0.4-0.3,0.6-0.6,0.9-1l27.6-48.2l11.5-12.4
	c9.4-10,12-24.7,6.8-37.4c-3.1-7.5-8.4-13.8-15.4-18.2l-8.5-5.3l7.8-6.2c9.1-7.2,18.8-13.7,28.8-19.5
	c36.1-20.8,77.1-32.1,118.7-32.5H268l-28.3,35.5l-68.1,23.9c-0.8,0.3-1.5,0.9-1.8,1.7l-18.5,44.8c-0.4,1-0.3,2,0.3,2.9l30.6,42.9
	l-4.6,4.2c-3.4,3.1-7.1,8.1-11.1,13.9c-2.1,2.9-4,5.7-5.5,7.5c-1.1,1.3-2.3,2.6-3.4,3.9c-5.5,6.2-11.1,12.5-15,20.7
	c-8.3,17.6-6.6,37.9,4.3,53.2c9.3,12.9,23.9,20.3,40.1,20.3c2.1,0,4.3-0.1,6.4-0.4c3-0.4,6-1.1,8.9-1.8c4.7-1.2,8-1.8,10.9-1.8
	c3.8,0,6.9,1.2,9.6,3.8c3.5,3.3,3.7,6,3.6,10.9c0,2.6,0,5.2,0.7,8.2c1.1,4.4,4,7.6,6.8,10.7c2,2.2,3.9,4.3,4.9,6.6
	c4.1,9.9,2.1,16.1-1,25.6c-0.3,0.8-0.5,1.5-0.8,2.3c-3.7,11.4,2,24,7.1,35.1c1.9,4.1,3.6,8,4.9,11.7c8.3,24.6,13.9,29.5,17.4,31.1
	c1.8,0.8,3.7,1.2,5.8,1.2c11.2,0,24.6-11.5,30.9-19.3c3.2-4,4-8,4.8-11.5c0.5-2.4,0.9-4.6,2.1-6.6c1.2-2.1,2.6-3.7,4.1-5.3
	c2.5-2.8,5-5.7,6.7-11.1c2.1-6.7,4.2-8.9,8.4-13.3c0.7-0.7,1.4-1.5,2.2-2.3c10.6-11.5,8.3-19.1,4.7-30.5c-4.4-14,4-23.1,17.1-35.4
	c5.3-5,10.8-10.1,14.9-15.9c1.4-2,5.7-8.3,3.6-13.3c-1.8-4.1-6-5.4-14.8-6.8c-6.1-0.9-9.2-1.6-11.5-3.1
	c-7.9-5.2-12.1-14.6-16.2-23.7c-0.7-1.6-1.4-3.1-2.1-4.6c-1.4-3-2.7-6.5-4.2-10.1c-3.4-8.8-7.3-18.8-13.3-25.2
	c-5-5.2-15.8-8.2-25.4-10.8c-3.7-1-7.1-1.9-9.7-2.9c-0.3-0.1-0.7-0.2-1-0.2c-0.2,0-0.5,0-0.7,0.1c-4,0.9-6.4,1.9-7.9,3.1
	c0,0-1,0.8-1.5,2l-2.8,6.9l-6.7-3.2c-4.1-2-9.5-5.5-12.7-7.7l-4.3-2.9l1.2-4.8c0.5-2.2,0.1-3.9-0.4-4.9c-3-6.2-14.2-6.7-17.6-6.7
	c-1.6,0-2.7,0.1-3.3,0.1c-2.2,0.2-4.9,0.3-7.8,0.4c-4.2,0.1-8.9,0.3-13.4,0.8l-11.2,1.3l4-11.3c4.6-12.9,16.9-21.5,30.6-21.5h5.7
	c1.7,0,3-1.3,3-3s-1.3-3-3-3H219c-13.2,0-25.8,7-32.8,18.3l-5.5,8.9L157.4,120l17.3-42.1l67.7-23.7c0.5-0.2,1-0.5,1.4-1l31.1-39
	l3.8,0.4C357,22.1,427.2,67,466.4,134.9c10.7,18.5,18.8,38.3,24.3,59l1,3.9c0.4,0.7,0.7,1.5,0.9,2.2c0.2,0.9,0.2,1.8,0.4,2.7
	c0.1,0.5,0.1,0.5,0-0.1c0.1,0.3,0.2,0.6,0.2,1c0.9,3,1.9,6.6,0.5,9.6c-1.7,3.8-5.6,4.7-9.5,4.8c-2.2,0-4.3,0.1-6.5,0.1
	c0,0.3,0,0.7-0.1,1l-0.1,2.8l0,0c0,0.4,0,0.7-0.1,1.1c0,0.1-0.1,0.3-0.1,0.4c0,0.1,0,0.1,0,0.2c0,1.2-0.3,2.3-0.6,3.4
	c-0.4,1.7-1,3.3-2.2,4.4c0,0,0,0,0,0.1c-0.3,0.4-0.6,0.8-1,1.1c-1.7,2.6-6.2,2.5-7-0.9c-0.6-2.7-1.9-5.9-1.8-8.8l-7.4-20.2
	c-0.7-2-1.8-3.9-3.2-5.6l-12.3-14.4c-3.4-4-8.5-6.3-13.8-6.3h-15.1c-2.8,0-5.3,1.5-6.6,4c-1.3,2.4-1.2,5.4,0.4,7.7l5,7.4l-4.7,4
	c-10.3,8.9-22.5,16.1-35.1,20.8L366,222l-24.3-46.6v-10.6c0-0.8-0.3-1.6-0.9-2.2l-18.6-17.8c-0.3-0.3-0.7-0.5-1.1-0.7l-16.8-5.9
	c-0.3-0.1-0.7-0.2-1-0.2c-1.3,0-2.4,0.8-2.8,2c-0.3,0.8-0.2,1.6,0.1,2.3c0.4,0.7,0.9,1.3,1.7,1.5l16.1,5.7l17.2,16.4v10
	c0,0.5,0.1,1,0.3,1.4l25.9,49.6c0.5,1,1.5,1.6,2.7,1.6c0.3,0,0.7-0.1,1-0.2l7.5-2.8c16.6-6.1,31.9-15.9,44.4-28.4
	c1-1,1.2-2.6,0.4-3.8l-7.8-11.7h18c3.5,0,6.9,1.5,9.2,4.2l12.3,14.4c0.9,1.1,1.7,2.4,2.2,3.7l13.6,37.4c0.4,1,1.2,1.7,2.2,1.9
	c0.2,0,0.4,0.1,0.7,0.1c0.8,0,1.6-0.3,2.1-0.9l6.5-6.5c3.1-3.1,5.3-7.2,6.4-11.7l0.6-2.4l12.9,0.7l0.3,2.5
	c10.6,84.6-24.1,169.6-90.5,221.7c-0.6,0.5-1,1.2-1.1,2s0.1,1.6,0.6,2.2c0.6,0.7,1.4,1.1,2.4,1.1c0.7,0,1.3-0.2,1.8-0.6
	c46.7-36.6,78.7-89,90.3-147.5C512,245.1,501.8,183.8,471.6,131.6z M48.6,275l44.2,33.6c0.4,0.3,0.8,0.5,1.2,0.6l24.9,4.9
	c5.2,1,9.5,4.1,12.1,8.6c2.7,4.5,3.2,9.8,1.6,14.8c-1.6,4.9-1.6,10.1,0,15l3.2,9.7c3.1,9.5-2.1,19.7-11.6,22.8l-9.9,3.2
	c-1,0.3-1.8,1.2-2,2.3l-10.4,54.1l-9.2-8.5c-18.5-16.9-34.2-36.6-46.9-58.5c-15.4-26.7-25.5-55.5-29.9-85.8l-0.9-5.9L48.6,275z
	 M116.3,97.1c4.3,10.5,2.1,22.7-5.6,31l-11.8,12.6c-0.2,0.2-0.3,0.4-0.4,0.6l-27.5,48L46,207c-1.3,0.9-1.6,2.8-0.7,4.1l15.2,22.2
	l-11,1.6c-5.5,0.8-10,1.4-13,1.8l-3.2,0.4l-2.4-2.3c-0.5-0.5-1.1-1.1-1.8-1.6c-2.3-2.2-5.6-5.1-10.5-9.3l-2.9-2.6l0.6-3.8
	C24.8,165,50.5,116.1,88.8,79.8l3-2.8l3.9,1.2C105.1,81.2,112.6,88,116.3,97.1z M183.7,171.8c5.5-3.1,14.4-3.6,25.6-4
	c2.9-0.1,5.7-0.2,8.1-0.4c0.8-0.1,1.6-0.1,2.5-0.1s1.9,0,2.9,0.1l9.4,0.7l-3.4,8.8c-0.2,0.5-0.2,1-0.2,1.5c0.1,0.9,0.7,1.7,1.5,2.2
	c2.2,1.2,4.9,3,7.8,4.9c7.1,4.7,15.1,10.1,21.6,10.5c0.2,0,0.5,0,0.7,0c3.9,0,6-2.2,7.4-3.6l0.1-0.1c0.2-0.2,0.4-0.4,0.5-0.5
	l0.2-0.2l0.2-0.1c0.3-0.2,0.6-0.6,0.9-1.1l2.7-5l5.5,1.6c1.5,0.4,3.1,0.9,4.9,1.4c12.2,3.3,19.5,5.7,22.6,9.1
	c5.3,5.6,8.9,15,12.1,23.3c1.5,3.8,2.8,7.3,4.3,10.5c0.7,1.4,1.3,2.8,1.9,4.3l0.1,0.3c4.2,9.4,9,20.1,18.4,26.2
	c3.8,2.5,9.1,3.3,13.9,4c0.7,0.1,1.5,0.2,2.3,0.4l11.1,1.8l-6.6,9.2c-3.6,5.1-8.5,9.6-13.6,14.4c-12.1,11.2-24.6,22.9-18.8,41.6
	c3.7,11.9,4.5,16.1-3.4,24.6c-0.8,0.8-1.5,1.6-2.1,2.3c-4.3,4.6-7.2,7.6-9.7,15.6c-1.3,4.2-3.3,6.4-5.5,8.9
	c-1.6,1.8-3.2,3.6-4.8,6.3c-1.7,2.9-2.2,5.7-2.8,8.5c-0.6,3.1-1.2,6.1-3.5,8.9c-3,3.7-8.6,9-14.3,12.7c-5.8,3.7-9.7,4.4-12,4.4
	c-0.2,0-0.4,0-0.6,0l-2.8-0.2l-1.9-2c-2.5-2.7-6.7-9.4-12.3-26c-1.3-3.9-3.3-8.2-5.1-12.3c-4.8-10.6-9.8-21.5-6.8-30.8
	c0.3-0.8,0.5-1.6,0.8-2.3c3.3-9.9,5.8-17.8,0.9-29.7c-1.4-3.2-3.6-5.7-6-8.4c-2.9-3.2-4.8-5.4-5.4-8.1c-0.6-2.3-0.5-4.6-0.5-6.8
	c0-4.9,0.1-10.1-5.5-15.3c-3.8-3.6-8.3-5.3-13.7-5.3c-4.3,0-8.8,1.1-12.4,2c-2.8,0.7-5.5,1.4-8.1,1.7c-1.9,0.2-3.9,0.3-5.8,0.3
	c-14.4,0-26.9-6.3-35.1-17.8c-9.7-13.5-11.1-31.5-3.7-47.1c3.5-7.3,8.4-12.9,14.1-19.3c1.1-1.3,2.3-2.6,3.4-3.9c1.7-2,3.8-4.9,5.9-8
	c5.8-8.2,9.1-12.5,12-14.3L183.7,171.8z"/>
<path d="M371.4,414.9c-4.5,0-8.1-3.9-10.4-7.2c-5.7-8.1-1.4-18.5,1.6-25.4l0.1-0.2l0-0.1c1.8-4.2,1.3-7.1,0.8-10.2
	c-0.5-3.1-0.9-6.4,0.4-10.5c2-6.2,7.3-8.8,12.4-11.3l0.1-0.1c3.2-1.5,6.3-3.1,8.4-5.4c2.3-2.6,4.1-6.4,5.9-10.1l0.4-0.9
	c1.1-2.4,2-4.2,2.8-5.7c0.4-0.6,1.1-1.1,1.8-1.1h0.4c0.7,0.1,1.3,0.7,1.5,1.4l4.8,18.1c0.1,0.4,0.1,0.8,0,1.3l-11.8,39.5
	c-5.2,17.4-11.1,26.7-17.7,27.8l-0.3,0l-0.3,0.1C372.1,414.9,371.9,414.9,371.4,414.9z M371.6,413.8l6.3-7.5
	c2.2-2.9,5.4-8.8,8.9-20.5l12-43.5l-16.2,8.8c-1.4,0.8-2.8,1.5-4.5,2.3c-4.4,2.1-9,4.3-10.5,9c-1,3.5-0.6,6.2-0.2,8.8
	c0.5,3.3,1.1,7.1-1.1,12.3l-0.1,0.2l0,0.1c-2.7,6.4-6.5,15.2-2,21.6c0.1,0.2,0.2,0.3,0.3,0.4c0.2,0.3,0.4,0.6,0.7,1L371.6,413.8z"/>
</svg>
